<?xml version="1.0" encoding="UTF-8" standalone="no"?>
<!-- Created with Inkscape (http://www.inkscape.org/) -->

<svg
   width="79.375mm"
   height="79.375mm"
   viewBox="0 0 79.375 79.375"
   version="1.1"
   id="svg1017"
   inkscape:version="1.1 (c68e22c387, 2021-05-23)"
   xmlns:inkscape="http://www.inkscape.org/namespaces/inkscape"
   xmlns:sodipodi="http://sodipodi.sourceforge.net/DTD/sodipodi-0.dtd"
   xmlns="http://www.w3.org/2000/svg"
   xmlns:svg="http://www.w3.org/2000/svg">
  <sodipodi:namedview
     id="namedview1019"
     pagecolor="#ffffff"
     bordercolor="#666666"
     borderopacity="1.0"
     inkscape:pageshadow="2"
     inkscape:pageopacity="0.0"
     inkscape:pagecheckerboard="0"
     inkscape:document-units="mm"
     showgrid="false"
     inkscape:zoom="1.4823793"
     inkscape:cx="57.677544"
     inkscape:cy="253.30898"
     inkscape:window-width="1920"
     inkscape:window-height="1017"
     inkscape:window-x="-8"
     inkscape:window-y="-8"
     inkscape:window-maximized="1"
     inkscape:current-layer="layer1" />
  <defs
     id="defs1014" />
  <g
     inkscape:label="Layer 1"
     inkscape:groupmode="layer"
     id="layer1"
     transform="translate(-68.474754,-95.961539)">
    <rect
       style="fill:#0066ff;fill-opacity:1;stroke-width:0.328443"
       id="rect695-56-4"
       width="79.375"
       height="79.375"
       x="68.474754"
       y="95.96154"
       rx="10.44438"
       inkscape:export-filename="D:\UPRI-Assets\NOAH Assets\HazardLevel\flood.png"
       inkscape:export-xdpi="96"
       inkscape:export-ydpi="96" />
    <rect
       style="fill:#ffffff;fill-opacity:1;stroke-width:0.306546"
       id="rect695-5-9-4"
       width="74.083336"
       height="74.083336"
       x="71.120598"
       y="98.607368"
       rx="9.7480879"
       inkscape:export-filename="D:\UPRI-Assets\NOAH Assets\HazardLevel\flood.png"
       inkscape:export-xdpi="96"
       inkscape:export-ydpi="96" />
    <path
       d="m 141.75563,147.47772 -22.27424,-38.89713 c -2.39187,-4.2093 -6.65238,-6.70371 -11.36136,-6.70371 -4.70898,0 -8.9695,2.49441 -11.36137,6.70371 l -22.27423,38.89713 c -2.46661,4.28726 -2.54135,9.50991 -0.14949,13.87512 2.39186,4.36521 6.65236,7.01551 11.51085,7.01551 h 44.54848 c 4.85848,0 9.11898,-2.57235 11.51085,-7.01551 2.31712,-4.36521 2.31712,-9.58786 -0.14949,-13.87512 z m -33.6356,9.12016 c -2.46661,0 -4.41,-2.0267 -4.41,-4.59906 0,-2.4944 1.94339,-4.59905 4.41,-4.59905 2.46661,0 4.41,2.0267 4.41,4.59905 0,2.57236 -1.94339,4.59906 -4.41,4.59906 z m 4.70898,-33.12881 -1.42017,17.46083 c -0.0747,0.9354 -0.44848,1.7149 -1.12119,2.26056 -0.59796,0.54565 -1.34542,0.7795 -2.09288,0.7795 -0.0747,0 -0.22423,0 -0.29898,0 -1.56966,-0.1559 -2.84034,-1.4031 -2.91508,-3.04006 l -1.42018,-17.46083 c -0.0747,-1.32515 0.29899,-2.57235 1.04645,-3.5857 0.8222,-1.01336 1.94339,-1.63696 3.21406,-1.71491 1.27068,-0.078 2.46661,0.3118 3.43831,1.0913 0.97169,0.85746 1.56966,2.02671 1.64441,3.35186 -0.0747,0.3118 -0.0747,0.6236 -0.0747,0.85745 z"
       id="path12-2-1"
       style="fill:#0066ff;fill-opacity:1;stroke-width:0.76331"
       inkscape:export-filename="D:\UPRI-Assets\NOAH Assets\HazardLevel\flood.png"
       inkscape:export-xdpi="96"
       inkscape:export-ydpi="96" />
    <ellipse
       style="fill:#0066ff;fill-opacity:1;stroke-width:0.264583"
       id="path2013-89-5"
       cx="108.32751"
       cy="137.1443"
       rx="14.728735"
       ry="21.137421"
       inkscape:export-filename="D:\UPRI-Assets\NOAH Assets\HazardLevel\flood.png"
       inkscape:export-xdpi="96"
       inkscape:export-ydpi="96" />
    <g
       id="g77-1-0"
       transform="matrix(1.0769305,0,0,1.0769305,79.7816,114.01783)"
       style="fill:#ffffff"
       inkscape:export-filename="D:\UPRI-Assets\NOAH Assets\HazardLevel\flood.png"
       inkscape:export-xdpi="96"
       inkscape:export-ydpi="96">
      <g
         id="g69-4-7"
         style="fill:#ffffff">
        <g
           id="g61-4-1"
           style="fill:#ffffff">
          <path
             d="M 47.60999,20.18161 29.25,2.14164 C 28.98999,1.90165 28.60999,1.86161 28.31,2.05161 L 6.58997,16.12162 c -0.26996,0.17004 -0.39001,0.5 -0.32001,0.81 0.08002,0.31 0.34003,0.53003 0.66003,0.57001 l 40.17999,4.06 h 0.07001 c 0.01001,0 0.01001,0 0.01996,0 0.41003,0 0.75,-0.33997 0.75,-0.75 0,-0.26002 -0.12994,-0.49 -0.33996,-0.63002 z M 27.38,15.87162 c -1.82001,-0.17999 -3.14001,-1.81 -2.96002,-3.63 0.17999,-1.82 1.81,-3.13995 3.63,-2.95996 1.82001,0.19 3.14001,1.81 2.96002,3.63 -0.18999,1.81994 -1.81005,3.14996 -3.63,2.95996 z"
             id="path59-1-8"
             style="fill:#ffffff" />
        </g>
        <g
           id="g65-7-2"
           style="fill:#ffffff">
          <path
             d="M 43.12,4.08164 42.31,12.10166 35.64997,5.56162 35.87,3.34165 c 0.04999,-0.41003 0.41998,-0.71002 0.82996,-0.67004 l 5.75,0.58002 c 0.19,0.02002 0.38,0.12 0.5,0.28003 0.13,0.14995 0.18999,0.34997 0.17004,0.54998 z"
             id="path63-7-1"
             style="fill:#ffffff" />
        </g>
        <path
           d="M 9.65997,19.79166 7.56,40.4216 c 0.06,0.02002 0.12,0.04004 0.17999,0.06 2.53998,0.88 2.77002,0.85004 4.66998,0.19 L 13.67999,28.12161 22.5,29.01163 21.42999,39.55161 c 2.97998,0.42999 5.15997,1.59003 7.20996,2.03003 0.70001,0 1.58002,-0.29999 2.51001,-0.60999 5.01001,-1.67004 8.45001,-1.30005 11.09003,-0.69 l 1.72998,-17.03003 z m 21.64002,18.16998 -4.01001,-0.41003 0.28998,-2.85999 4.01001,0.40002 z m 0.44,-4.35998 -4.01001,-0.41003 0.28998,-2.87 4.01001,0.40997 z m 5.06,4.91998 -4.01001,-0.41003 0.28998,-2.87 4.01001,0.41003 z m 0.44,-4.35998 -4.01001,-0.41003 0.28998,-2.87 4.01001,0.41003 z"
           id="path67-0-8"
           style="fill:#ffffff" />
      </g>
      <g
         id="g75-7-4"
         style="fill:#ffffff">
        <g
           id="g73-1-3"
           style="fill:#ffffff">
          <path
             d="M 51.5,51.06827 V 43.6116 c 0,-0.31 -0.15002,-0.60999 -0.40002,-0.79999 -0.25,-0.19 -0.58002,-0.25 -0.88,-0.15997 l -0.14001,0.03998 c -0.91998,0.27002 -1.78998,0.52002 -2.66998,0.57001 -1.37,0.08002 -2.71997,-0.28003 -4.16998,-0.66998 -0.54004,-0.14001 -1.09003,-0.28003 -1.60999,-0.40002 l -0.29004,-0.07001 c -2.76996,-0.56 -5.69,-0.44 -8.38,0.35999 -0.38995,0.12006 -0.77997,0.25 -1.16998,0.38 -1.09003,0.37 -2.13,0.72003 -3.15002,0.72003 H 28.51004 C 27.49002,43.55161 26.48001,43.15165 25.41,42.7316 24.97,42.56162 24.54,42.38162 24.1,42.24161 23.27999,41.95163 22.39999,41.7316 21.49001,41.58164 c -2.35004,-0.37 -4.79999,-0.19 -7.04999,0.51001 -0.40002,0.13 -0.80005,0.26996 -1.20001,0.40997 -0.41003,0.14001 -0.82001,0.29004 -1.28003,0.42999 -0.01001,0 -0.09998,0.02002 -0.09998,0.02002 -0.47003,0.12 -0.84003,0.19 -1.19,0.20001 C 9.49001,43.21164 8.32002,42.8016 7.06001,42.3616 5.77998,41.90164 4.45997,41.44162 3.01002,41.44162 H 2.84998 c -0.17999,0 -0.33997,0.01001 -0.51001,0.03998 C 1.84998,41.56162 1.5,41.9816 1.5,42.47165 v 8.59662 z"
             id="path71-2-6"
             style="fill:#ffffff" />
        </g>
      </g>
    </g>
  </g>
</svg>
