<?xml version="1.0" encoding="UTF-8" standalone="no"?>
<!-- Created with Inkscape (http://www.inkscape.org/) -->

<svg
   width="79.375mm"
   height="79.375mm"
   viewBox="0 0 79.375 79.375"
   version="1.1"
   id="svg1017"
   inkscape:version="1.1 (c68e22c387, 2021-05-23)"
   xmlns:inkscape="http://www.inkscape.org/namespaces/inkscape"
   xmlns:sodipodi="http://sodipodi.sourceforge.net/DTD/sodipodi-0.dtd"
   xmlns="http://www.w3.org/2000/svg"
   xmlns:svg="http://www.w3.org/2000/svg">
  <sodipodi:namedview
     id="namedview1019"
     pagecolor="#ffffff"
     bordercolor="#666666"
     borderopacity="1.0"
     inkscape:pageshadow="2"
     inkscape:pageopacity="0.0"
     inkscape:pagecheckerboard="0"
     inkscape:document-units="mm"
     showgrid="false"
     inkscape:zoom="1.4823793"
     inkscape:cx="-45.534903"
     inkscape:cy="178.42936"
     inkscape:window-width="1920"
     inkscape:window-height="1017"
     inkscape:window-x="-8"
     inkscape:window-y="-8"
     inkscape:window-maximized="1"
     inkscape:current-layer="layer1" />
  <defs
     id="defs1014" />
  <g
     inkscape:label="Layer 1"
     inkscape:groupmode="layer"
     id="layer1"
     transform="translate(-95.183891,-158.01082)">
    <rect
       style="fill:#0066ff;fill-opacity:1;stroke-width:0.328443"
       id="rect695-57-9-0"
       width="79.375"
       height="79.375"
       x="95.183891"
       y="158.01082"
       rx="10.44438"
       inkscape:export-filename="D:\UPRI-Assets\NOAH Assets\HazardLevel\landslide.png"
       inkscape:export-xdpi="96"
       inkscape:export-ydpi="96" />
    <rect
       style="fill:#ffffff;fill-opacity:1;stroke-width:0.306546"
       id="rect695-5-0-9-0"
       width="74.083336"
       height="74.083336"
       x="97.82972"
       y="160.65665"
       rx="9.7480879"
       inkscape:export-filename="D:\UPRI-Assets\NOAH Assets\HazardLevel\landslide.png"
       inkscape:export-xdpi="96"
       inkscape:export-ydpi="96" />
    <path
       d="M 168.46474,209.52699 146.1905,170.62987 c -2.39186,-4.20931 -6.65237,-6.70371 -11.36134,-6.70371 -4.709,0 -8.96951,2.4944 -11.36137,6.70371 l -22.27424,38.89712 c -2.466626,4.28726 -2.541347,9.50992 -0.14949,13.87513 2.39186,4.3652 6.65237,7.0155 11.51083,7.0155 h 44.54851 c 4.85846,0 9.11897,-2.57235 11.51085,-7.0155 2.31712,-4.36521 2.31712,-9.58787 -0.14951,-13.87513 z m -33.63558,9.12017 c -2.46661,0 -4.41002,-2.02671 -4.41002,-4.59906 0,-2.49441 1.94341,-4.59906 4.41002,-4.59906 2.4666,0 4.41,2.0267 4.41,4.59906 0,2.57235 -1.9434,4.59906 -4.41,4.59906 z m 4.70897,-33.12881 -1.42017,17.46083 c -0.0748,0.9354 -0.44847,1.7149 -1.12118,2.26055 -0.59795,0.54565 -1.34543,0.7795 -2.09288,0.7795 -0.0747,0 -0.22423,0 -0.29897,0 -1.56967,-0.1559 -2.84036,-1.4031 -2.9151,-3.04005 l -1.42018,-17.46083 c -0.0748,-1.32516 0.299,-2.57236 1.04645,-3.58571 0.82219,-1.01335 1.94339,-1.63695 3.21405,-1.7149 1.27069,-0.0779 2.46663,0.3118 3.43832,1.0913 0.97171,0.85745 1.56966,2.0267 1.64441,3.35186 -0.0747,0.3118 -0.0747,0.6236 -0.0747,0.85745 z"
       id="path12-6-2-6"
       style="fill:#0066ff;fill-opacity:1;stroke-width:0.76331"
       inkscape:export-filename="D:\UPRI-Assets\NOAH Assets\HazardLevel\landslide.png"
       inkscape:export-xdpi="96"
       inkscape:export-ydpi="96" />
    <ellipse
       style="fill:#0066ff;fill-opacity:1;stroke-width:0.264583"
       id="path2013-8-0-7"
       cx="135.03662"
       cy="199.19359"
       rx="14.728735"
       ry="21.137421"
       inkscape:export-filename="D:\UPRI-Assets\NOAH Assets\HazardLevel\landslide.png"
       inkscape:export-xdpi="96"
       inkscape:export-ydpi="96" />
    <g
       id="g2382-6-5"
       transform="matrix(0.8976986,0,0,0.8976986,107.19094,177.27004)"
       style="fill:#ffffff"
       inkscape:export-filename="D:\UPRI-Assets\NOAH Assets\HazardLevel\landslide.png"
       inkscape:export-xdpi="96"
       inkscape:export-ydpi="96">
      <path
         d="M 59.016,58.069 H 39.172 c -1.108,-1.274 -5.439,-6.866 -6.117,-16.701 -0.487,-0.235 -0.845,-0.456 -0.977,-0.541 -2.061,-1.331 -3.083,-4.439 -2.229,-6.782 0.155,-0.423 0.389,-0.824 0.656,-1.208 -1.288,-1.172 -3.218,-2.535 -6.111,-4.573 -1.497,-1.055 -3.265,-2.3 -5.352,-3.805 C 17.551,23.384 12.686,19.289 12.686,11.726 12.686,8.603 12.137,6.054 5.235,4.04 4.941,3.953 4.629,4.011 4.387,4.195 4.144,4.377 4,4.663 4,4.967 V 59.035 C 4,59.568 4.432,60 4.965,60 h 54.051 c 0.534,0 0.966,-0.432 0.966,-0.965 -10e-4,-0.534 -0.432,-0.966 -0.966,-0.966 z"
         id="path2362-5-0"
         style="fill:#ffffff" />
      <path
         d="m 57.086,56.139 v -9.725 c 0,-0.495 -0.432,-0.896 -0.966,-0.896 H 42.607 c -0.533,0 -0.965,0.401 -0.965,0.896 v 9.725 h 3.86 V 50 c 0,-0.495 0.432,-0.896 0.966,-0.896 h 5.791 c 0.533,0 0.965,0.401 0.965,0.896 v 6.139 z"
         id="path2364-1-7"
         style="fill:#ffffff" />
      <rect
         x="47.433998"
         y="50.346001"
         width="3.8599999"
         height="5.7930002"
         id="rect2366-7-9"
         style="fill:#ffffff" />
      <path
         d="m 38.791,42.912 c 0.128,0.401 0.5,0.675 0.921,0.675 h 19.304 c 0.007,10e-4 0.015,0 0.02,0 0.533,0 0.965,-0.432 0.965,-0.966 0,-0.38 -0.219,-0.709 -0.538,-0.866 l -9.545,-6.683 c -0.331,-0.232 -0.774,-0.232 -1.106,0 l -9.651,6.758 c -0.348,0.241 -0.496,0.68 -0.37,1.082 z"
         id="path2368-4-4"
         style="fill:#ffffff" />
      <path
         d="m 33.131,39.208 c 0.156,0.102 1.57,0.991 2.821,0.991 0.356,0 0.674,-0.073 0.945,-0.218 0.493,-0.263 0.689,-0.773 0.832,-1.146 0.019,-0.048 0.035,-0.097 0.053,-0.144 0.057,-0.008 0.117,-0.014 0.178,-0.022 0.363,-0.048 0.738,-0.098 1.047,-0.286 1.036,-0.62 1.915,-2.438 1.463,-3.676 -0.553,-1.518 -3.351,-2.798 -4.814,-2.798 -1.557,0 -3.459,1.334 -3.992,2.798 -0.549,1.504 0.149,3.649 1.467,4.501 z"
         id="path2370-4-0"
         style="fill:#ffffff" />
      <path
         d="m 43.875,31.052 c 0.073,0.018 0.232,0.036 0.308,0.036 0.406,0 0.769,-0.193 0.991,-0.531 0.499,-0.756 0.033,-1.868 0.014,-1.915 -0.287,-0.672 -1.775,-2.213 -2.678,-2.486 -0.675,-0.206 -1.367,0.078 -1.7,0.691 -0.32,0.589 -0.284,1.403 0.089,1.98 0.408,0.631 2.098,2.02 2.976,2.225 z"
         id="path2372-2-3"
         style="fill:#ffffff" />
      <path
         d="m 37.356,28.965 c 0.048,0.008 0.18,0.017 0.228,0.017 h 10e-4 c 0.765,0 1.971,-0.658 2.236,-1.399 0.23,-0.643 -0.129,-1.304 -0.294,-1.558 -0.351,-0.541 -0.828,-0.86 -1.343,-0.899 -0.999,-0.078 -2.095,1.043 -2.147,1.866 -0.043,0.708 0.349,1.825 1.319,1.973 z"
         id="path2374-8-8"
         style="fill:#ffffff" />
      <path
         d="m 29.229,29.602 c 0.134,0 0.264,-0.014 0.385,-0.038 1.924,-0.388 2.108,-3.965 2.051,-4.828 -0.099,-1.509 -2.101,-4.828 -4.008,-4.828 -0.029,0 -0.128,0.003 -0.156,0.006 -0.659,0.06 -1.26,0.473 -1.787,1.227 -0.829,1.188 -1.486,3.323 -1.145,4.611 0.406,1.519 2.976,3.85 4.66,3.85 z"
         id="path2376-7-5"
         style="fill:#ffffff" />
      <path
         d="m 15.036,17.445 c -0.105,1.17 0.875,2.581 1.789,3.016 0.502,0.237 1.382,0.492 2.132,0.492 0.625,0 1.112,-0.173 1.447,-0.514 0.821,-0.831 0.885,-3.116 0.456,-4.024 -0.41,-0.868 -1.65,-2.112 -2.819,-1.899 -0.916,0.162 -2.883,1.62 -3.005,2.929 z"
         id="path2378-9-4"
         style="fill:#ffffff" />
      <path
         d="m 15.33,9.474 c 0.049,0 0.18,-0.009 0.228,-0.017 0.971,-0.148 1.361,-1.266 1.318,-1.976 -0.05,-0.818 -1.131,-1.938 -2.144,-1.864 -0.511,0.038 -1.002,0.367 -1.348,0.902 -0.164,0.254 -0.522,0.915 -0.293,1.552 0.264,0.743 1.472,1.403 2.239,1.403 z"
         id="path2380-5-9"
         style="fill:#ffffff" />
    </g>
  </g>
</svg>
