<?xml version="1.0" encoding="UTF-8" standalone="no"?>
<!-- Created with Inkscape (http://www.inkscape.org/) -->

<svg
   width="181.23958mm"
   height="79.374992mm"
   viewBox="0 0 181.23958 79.374992"
   version="1.1"
   id="svg955"
   inkscape:version="1.1 (c68e22c387, 2021-05-23)"
   sodipodi:docname="landslide-noise.svg"
   xmlns:inkscape="http://www.inkscape.org/namespaces/inkscape"
   xmlns:sodipodi="http://sodipodi.sourceforge.net/DTD/sodipodi-0.dtd"
   xmlns="http://www.w3.org/2000/svg"
   xmlns:svg="http://www.w3.org/2000/svg">
  <sodipodi:namedview
     id="namedview957"
     pagecolor="#ffffff"
     bordercolor="#666666"
     borderopacity="1.0"
     inkscape:pageshadow="2"
     inkscape:pageopacity="0.0"
     inkscape:pagecheckerboard="0"
     inkscape:document-units="mm"
     showgrid="false"
     inkscape:zoom="0.74118967"
     inkscape:cx="543.04588"
     inkscape:cy="362.25545"
     inkscape:window-width="1920"
     inkscape:window-height="1017"
     inkscape:window-x="-8"
     inkscape:window-y="-8"
     inkscape:window-maximized="1"
     inkscape:current-layer="layer1" />
  <defs
     id="defs952" />
  <g
     inkscape:label="Layer 1"
     inkscape:groupmode="layer"
     id="layer1"
     transform="translate(-92.333467,-30.671804)">
    <g
       id="g908"
       transform="matrix(0.35057503,0,0,0.35057503,103.89432,31.018261)"
       style="fill:#0066ff;fill-opacity:1"
       inkscape:export-filename="D:\UPRI-Assets\NOAH Assets\HazardLevel\StormSurge\storm-surge-exit.png"
       inkscape:export-xdpi="96"
       inkscape:export-ydpi="96">
      <circle
         transform="matrix(0.2268,-0.9739,0.9739,0.2268,85.6621,152.9011)"
         cx="139.129"
         cy="22.5"
         id="ellipse892"
         r="22.495001"
         style="fill:#0066ff;fill-opacity:1" />
      <path
         d="m 86.632,116.684 c 1.849,9.511 6.457,13.979 11.808,16.021 1.975,5.551 3.698,12.575 3.664,18.509 0.005,2.982 -0.402,5.643 -1.163,7.815 -1.223,3.264 -2.788,5.564 -6.691,7.954 -3.914,2.329 -10.764,4.481 -21.829,4.687 -6.903,0.135 -12.39,5.839 -12.254,12.742 0.132,6.901 5.837,12.388 12.74,12.253 9.325,-0.184 17.366,-1.432 24.368,-3.78 10.476,-3.446 18.652,-9.814 23.462,-17.638 2.972,-4.775 4.691,-9.821 5.578,-14.784 8.016,13.909 14.972,31.985 16.705,54.42 0.503,6.557 5.982,11.543 12.452,11.543 0.321,0 0.645,-0.013 0.97,-0.037 6.883,-0.53 12.034,-6.54 11.505,-13.422 -2.705,-35.282 -16.477,-61.949 -29.522,-79.592 -5.996,-8.114 -11.836,-14.373 -16.476,-18.828 -0.526,-8.541 0.415,-17.559 1.801,-26.055 -0.752,-0.623 -1.504,-1.245 -2.25,-1.888 -11.16,-9.631 -17.567,-18.065 -18.738,-19.657 -1.626,-2.24 -2.272,-4.938 -1.841,-7.63 0.427,-2.689 1.878,-5.054 4.084,-6.651 1.752,-1.272 3.821,-1.943 5.979,-1.943 3.265,0 6.353,1.574 8.266,4.212 l 0.151,0.206 c 0.147,0.19 0.382,0.496 0.703,0.901 0.592,0.749 1.59,1.968 2.965,3.524 2.441,2.77 6.463,7.027 11.752,11.59 2.456,2.121 5.325,4.414 8.547,6.72 11.007,5.021 24.458,9.402 39.415,10.441 0.186,0.013 0.37,0.019 0.554,0.019 4.168,0 7.684,-3.231 7.973,-7.452 0.303,-4.408 -3.025,-8.227 -7.434,-8.528 -16.582,-1.117 -31.832,-7.434 -42.846,-13.574 -5.506,-3.062 -9.946,-6.057 -12.969,-8.257 -1.514,-1.102 -2.672,-2.002 -3.433,-2.613 -0.382,-0.306 -0.664,-0.538 -0.842,-0.686 -0.087,-0.073 -0.149,-0.126 -0.187,-0.158 -0.026,-0.021 -0.026,-0.021 -0.026,-0.021 -0.087,-0.076 -0.18,-0.14 -0.27,-0.211 -1.422,-1.351 -3.107,-2.34 -5.042,-2.822 -8.537,-2.127 -20.912,2.508 -25.947,17.15 -6.805,20.172 -8.268,33.305 -5.682,55.52 z"
         id="path894"
         style="fill:#0066ff;fill-opacity:1" />
      <path
         d="m 121.416,61.022 c -1.354,-1.534 -2.372,-2.775 -3.037,-3.613 -0.332,-0.419 -0.576,-0.735 -0.728,-0.937 -0.077,-0.102 -0.13,-0.173 -0.16,-0.215 -0.023,-0.03 -0.021,-0.03 -0.023,-0.03 -2.594,-3.576 -7.596,-4.374 -11.171,-1.78 -3.577,2.593 -4.376,7.596 -1.78,11.173 l -0.003,-0.002 c 0.258,0.349 6.684,9.187 18.422,19.318 11.734,10.109 28.839,21.601 50.573,26.689 0.612,0.143 1.225,0.212 1.826,0.212 3.634,0 6.922,-2.493 7.783,-6.183 1.005,-4.303 -1.669,-8.605 -5.972,-9.608 -18.262,-4.247 -33.325,-14.211 -43.762,-23.226 -5.215,-4.497 -9.26,-8.731 -11.968,-11.798 z"
         id="path896"
         style="fill:#0066ff;fill-opacity:1" />
      <path
         d="m 207.71,127.799 h 54.132 v -41.35 h -12.033 v -9.271 h -30.064 v 9.271 H 207.71 Z m 38.344,-18.009 h -8.612 v 8.612 h -5.331 V 109.79 H 223.5 v -5.331 h 8.611 v -8.613 h 5.331 v 8.613 h 8.612 z M 222.741,80.179 h 24.065 l 10e-4,6.271 h -24.066 z"
         id="path898"
         style="fill:#0066ff;fill-opacity:1" />
      <rect
         x="182.899"
         y="133.063"
         width="103"
         height="5.2620001"
         id="rect900"
         style="fill:#0066ff;fill-opacity:1" />
      <rect
         y="36.040001"
         width="90.160004"
         height="2.971"
         id="rect902"
         x="0"
         style="fill:#0066ff;fill-opacity:1" />
      <rect
         x="10.929"
         y="43.837002"
         width="42.077999"
         height="2.971"
         id="rect904"
         style="fill:#0066ff;fill-opacity:1" />
      <rect
         x="34.971001"
         y="28.239"
         width="42.076"
         height="2.971"
         id="rect906"
         style="fill:#0066ff;fill-opacity:1" />
    </g>
    <path
       fill-rule="evenodd"
       clip-rule="evenodd"
       d="m 210.43195,110.50649 c 0,0 0.0306,2.7e-4 0.0335,2.7e-4 h 48.08289 c 1.6858,0 3.05288,-1.36709 3.05288,-3.05289 V 34.224005 c 0,-1.686046 -1.36708,-3.052889 -3.05288,-3.052889 h -48.08289 c 0,0 -0.0306,1.85e-4 -0.0335,1.85e-4 -0.7339,-0.08432 -1.48248,0.09949 -2.10038,0.532448 -0.81575,0.571299 -1.30145,1.504637 -1.30145,2.500505 v 73.269156 c 0,0.99585 0.4857,1.92911 1.30145,2.50062 0.6179,0.43259 1.36615,0.61668 2.09948,0.53242 z m 3.08646,-7.53025 V 38.701618 l 20.98856,7.632203 v 49.0102 z m 13.9486,1.42478 11.13632,-4.04967 c 1.20619,-0.438687 2.00941,-1.585359 2.00941,-2.869089 V 44.195553 c 0,-1.283737 -0.80322,-2.430341 -2.00941,-2.869067 l -11.13632,-4.049557 h 28.02853 v 67.124091 z"
       fill="#000000"
       id="path1305"
       style="fill:#0066ff;fill-opacity:1;stroke-width:3.05287"
       inkscape:export-filename="D:\UPRI-Assets\NOAH Assets\HazardLevel\StormSurge\storm-surge-exit.png"
       inkscape:export-xdpi="96"
       inkscape:export-ydpi="96" />
  </g>
</svg>
