<?xml version="1.0" encoding="UTF-8" standalone="no"?>
<!-- Created with Inkscape (http://www.inkscape.org/) -->

<svg
   width="181.23958mm"
   height="79.374992mm"
   viewBox="0 0 181.23958 79.374992"
   version="1.1"
   id="svg955"
   inkscape:version="1.1 (c68e22c387, 2021-05-23)"
   sodipodi:docname="landslide-noise.svg"
   xmlns:inkscape="http://www.inkscape.org/namespaces/inkscape"
   xmlns:sodipodi="http://sodipodi.sourceforge.net/DTD/sodipodi-0.dtd"
   xmlns="http://www.w3.org/2000/svg"
   xmlns:svg="http://www.w3.org/2000/svg">
  <sodipodi:namedview
     id="namedview957"
     pagecolor="#ffffff"
     bordercolor="#666666"
     borderopacity="1.0"
     inkscape:pageshadow="2"
     inkscape:pageopacity="0.0"
     inkscape:pagecheckerboard="0"
     inkscape:document-units="mm"
     showgrid="false"
     inkscape:zoom="0.74118967"
     inkscape:cx="543.04588"
     inkscape:cy="362.25545"
     inkscape:window-width="1920"
     inkscape:window-height="1017"
     inkscape:window-x="-8"
     inkscape:window-y="-8"
     inkscape:window-maximized="1"
     inkscape:current-layer="layer1" />
  <defs
     id="defs952" />
  <g
     inkscape:label="Layer 1"
     inkscape:groupmode="layer"
     id="layer1"
     transform="translate(-92.333467,-30.671804)">
    <g
       id="g1004"
       transform="matrix(0.23741093,0,0,0.23741093,101.29721,30.949271)"
       style="fill:#0066ff;fill-opacity:1"
       inkscape:export-filename="D:\UPRI-Assets\NOAH Assets\HazardLevel\StormSurge\storm-surge-evacuate.png"
       inkscape:export-xdpi="96"
       inkscape:export-ydpi="96">
      <path
         d="m 258.893,147.626 -3.614,9.355 -6.529,-7.613 c -13.151,-15.342 -25.245,-26.387 -36.184,-33.074 -28.398,9.926 -54.639,36.152 -60.144,71.708 11.57,31.356 63.354,82.636 184.94,101.539 l 15.402,-6.118 c -19.466,-3.358 -36.223,-8.022 -50.502,-13.485 -4.665,-4.524 -7.495,-9.027 -8.72,-12.922 -2.959,-9.404 12.497,-29.167 38.488,-7.6 4.247,-10.998 -8.676,-34.072 -23.909,-42.138 -19.166,-10.146 -49.759,5.101 -56.318,32.435 -9.159,-8.833 -14.671,-17.633 -17.063,-25.236 -5.736,-18.231 0.645,-36.824 14.213,-49.422 19.379,-16.476 43.607,8.722 55.234,22.288 8.235,-21.319 -11.652,-53.653 -41.184,-69.288 -0.638,-0.338 -1.282,-0.661 -1.934,-0.969 2.052,11.008 1.363,21.381 -2.176,30.54 z"
         id="path986"
         style="fill:#0066ff;fill-opacity:1" />
      <path
         d="m 283.801,310.814 42.906,-17.041 C 210.006,273.235 156.83,222.227 145.884,187.431 c -8.871,-28.199 1,-56.956 21.983,-76.44 29.976,-25.479 67.445,13.489 85.432,34.472 C 266.038,112.49 235.275,62.48 189.6,38.3 125.899,4.577 20.051,64.394 16.987,163.449 15.488,211.91 53.958,307.333 1.5,302.836 v 7.978 z"
         id="path988"
         style="fill:#0066ff;fill-opacity:1" />
      <path
         d="m 494.446,46.468 c -0.489,0.041 -11.49,0.734 -25.147,5.714 -13.584,4.967 -30.22,14.401 -40.393,32.478 -2.163,3.853 -0.792,8.73 3.064,10.892 1.238,0.694 2.581,1.024 3.906,1.024 2.8,0 5.517,-1.472 6.985,-4.087 7.503,-13.44 20.401,-21.066 31.931,-25.28 0.137,-0.05 0.268,-0.093 0.404,-0.142 0,0.001 0,0.001 0,0.002 -3.854,20.939 -3.425,34.146 2.309,55.762 2.604,7.475 6.552,11.35 10.956,13.206 0.61,2.934 1.147,6.775 1.139,11.23 -0.009,7.107 -1.301,15.708 -5.751,25.126 -4.472,9.416 -12.127,19.794 -25.615,30.296 -5.452,4.235 -6.435,12.09 -2.198,17.542 2.465,3.169 6.152,4.828 9.879,4.829 2.682,0 5.382,-0.858 7.663,-2.63 16.229,-12.598 26.669,-26.212 32.868,-39.341 6.219,-13.124 8.163,-25.62 8.156,-35.821 -0.005,-3.306 -0.204,-6.376 -0.52,-9.172 l 22.427,0.775 25.517,38.981 c 3.78,5.776 11.529,7.394 17.303,3.613 5.777,-3.782 7.396,-11.529 3.613,-17.306 l -29.064,-44.404 c -2.222,-3.392 -5.976,-5.508 -10.026,-5.646 l -32.208,-1.112 c -1.323,-7.733 -1.577,-15.927 -1.421,-23.735 L 490.091,70.71 c -2.003,-1.845 -3.169,-4.361 -3.279,-7.084 -0.112,-2.721 0.844,-5.323 2.689,-7.329 1.927,-2.089 4.663,-3.288 7.506,-3.288 2.565,0 5.017,0.959 6.908,2.698 l 7.297,6.725 c -0.989,-8.093 -5.833,-15.339 -12.784,-16.043 -1.238,-0.125 -2.535,-0.089 -3.854,0.08 -0.043,-10e-4 -0.085,-0.004 -0.128,-10e-4 z"
         id="path990"
         style="fill:#0066ff;fill-opacity:1" />
      <circle
         transform="matrix(0.0853,-0.9964,0.9964,0.0853,450.7522,535.9869)"
         cx="517.29498"
         cy="22.496"
         id="ellipse992"
         r="22.495001"
         style="fill:#0066ff;fill-opacity:1" />
      <path
         d="m 491.119,57.785 c -2.993,3.25 -2.788,8.311 0.465,11.305 h -0.003 l 25.501,23.499 c 1.521,1.402 3.465,2.119 5.421,2.119 1.538,0 3.084,-0.443 4.438,-1.345 l 28.5,-19.001 c 3.675,-2.45 4.669,-7.418 2.219,-11.094 -2.452,-3.675 -7.418,-4.669 -11.094,-2.219 L 523.299,76.56 502.425,57.322 c -3.25,-2.993 -8.311,-2.786 -11.306,0.463 z"
         id="path994"
         style="fill:#0066ff;fill-opacity:1" />
      <rect
         x="330.591"
         y="58.610001"
         transform="matrix(0.9897,-0.1429,0.1429,0.9897,-4.714,55.7165)"
         width="109.999"
         height="4.1420002"
         id="rect996"
         style="fill:#0066ff;fill-opacity:1" />
      <rect
         x="345.64099"
         y="71.655998"
         transform="matrix(0.9897,-0.1429,0.1429,0.9897,-6.7247,53.8108)"
         width="51.334"
         height="4.1420002"
         id="rect998"
         style="fill:#0066ff;fill-opacity:1" />
      <rect
         x="371.565"
         y="45.945"
         transform="matrix(0.9897,-0.1429,0.1429,0.9897,-2.785,57.2443)"
         width="51.334"
         height="4.1420002"
         id="rect1000"
         style="fill:#0066ff;fill-opacity:1" />
      <polygon
         points="687.004,158.204 285.139,317.814 0,317.814 0,334.313 687.004,334.313 "
         id="polygon1002"
         style="fill:#0066ff;fill-opacity:1" />
    </g>
  </g>
</svg>
