<?xml version="1.0" encoding="UTF-8" standalone="no"?>
<!-- Created with Inkscape (http://www.inkscape.org/) -->

<svg
   width="181.23958mm"
   height="79.374992mm"
   viewBox="0 0 181.23958 79.374992"
   version="1.1"
   id="svg955"
   inkscape:version="1.1 (c68e22c387, 2021-05-23)"
   sodipodi:docname="landslide-noise.svg"
   xmlns:inkscape="http://www.inkscape.org/namespaces/inkscape"
   xmlns:sodipodi="http://sodipodi.sourceforge.net/DTD/sodipodi-0.dtd"
   xmlns="http://www.w3.org/2000/svg"
   xmlns:svg="http://www.w3.org/2000/svg">
  <sodipodi:namedview
     id="namedview957"
     pagecolor="#ffffff"
     bordercolor="#666666"
     borderopacity="1.0"
     inkscape:pageshadow="2"
     inkscape:pageopacity="0.0"
     inkscape:pagecheckerboard="0"
     inkscape:document-units="mm"
     showgrid="false"
     inkscape:zoom="0.74118967"
     inkscape:cx="543.04588"
     inkscape:cy="362.25545"
     inkscape:window-width="1920"
     inkscape:window-height="1017"
     inkscape:window-x="-8"
     inkscape:window-y="-8"
     inkscape:window-maximized="1"
     inkscape:current-layer="layer1" />
  <defs
     id="defs952" />
  <g
     inkscape:label="Layer 1"
     inkscape:groupmode="layer"
     id="layer1"
     transform="translate(-92.333467,-30.671804)">
    <g
       id="g1177"
       transform="matrix(0.42668462,0,0,0.42668462,131.67888,30.907671)"
       style="fill:#0066ff;fill-opacity:1"
       inkscape:export-filename="D:\UPRI-Assets\NOAH Assets\HazardLevel\Landslide\landslide-listen.png"
       inkscape:export-xdpi="96"
       inkscape:export-ydpi="96">
      <path
         d="M 10.805,50.298 C 7.203,50.986 3.601,51.673 0,52.361 8.422,96.507 8.662,141.808 0.773,186.027 h 11.174 c 0.805,-4.656 1.502,-9.324 2.133,-14 H 55 v 14 h 11 v -38.666 h 2.334 v -11 H 17.199 C 18.346,107.584 16.225,78.711 10.805,50.298 Z M 55,147.361 v 18.666 H 14.84 c 0.738,-6.211 1.32,-12.434 1.75,-18.666 z"
         id="path1165"
         style="fill:#0066ff;fill-opacity:1" />
      <path
         d="m 82.045,44.406 c 12.1,2.818 24.191,-4.707 27.01,-16.807 2.818,-12.1 -4.708,-24.191 -16.807,-27.008 -12.1,-2.818 -24.193,4.707 -27.012,16.805 -2.816,12.1 4.709,24.194 16.809,27.01 z"
         id="path1167"
         style="fill:#0066ff;fill-opacity:1" />
      <path
         d="m 44.911,56.078 c -11.134,18.146 -15.49,30.619 -17.926,52.852 -0.543,16.395 9.846,20.467 18.805,22.398 0.239,0.052 0.473,0.1 0.705,0.149 1.061,0.345 2.185,0.542 3.35,0.59 1.454,0.187 2.745,0.223 3.896,0.026 h 38.107 l -7.601,38.892 c -1.323,6.776 3.095,13.342 9.87,14.666 0.811,0.158 1.618,0.235 2.413,0.235 5.858,0 11.088,-4.14 12.255,-10.105 l 10.512,-53.789 c 0.719,-3.684 -0.233,-7.447 -2.619,-10.345 -0.888,-1.078 -1.932,-1.982 -3.086,-2.696 -1.086,4.491 -5.144,7.81 -9.899,7.81 -0.237,0 -0.476,-0.009 -0.715,-0.026 -9.167,-0.642 -17.223,-2.535 -23.945,-5.63 -2.532,-1.162 -4.883,-2.507 -7.058,-4.013 h -8.45 c 0.511,-1.952 1.084,-3.897 1.705,-5.831 -0.619,-0.67 -1.221,-1.354 -1.791,-2.063 -6.109,-7.621 -9.21,-17.043 -9.217,-28.003 0.011,-6.586 1.139,-11.506 1.622,-13.313 1.261,-4.466 5.295,-7.521 9.837,-7.521 0.937,0 1.872,0.131 2.779,0.389 5.386,1.516 8.552,7.142 7.057,12.538 l -0.086,0.354 c -0.082,0.348 -0.199,0.896 -0.315,1.604 -0.227,1.346 -0.494,3.462 -0.492,5.945 -0.003,1.562 0.108,3.497 0.482,5.558 0.968,-2.137 1.9,-4.189 2.755,-6.11 C 82.88,61.576 81.878,49.127 74.033,45.15 66.185,41.17 53.088,42.927 44.911,56.078 Z"
         id="path1169"
         style="fill:#0066ff;fill-opacity:1" />
      <path
         d="m 72.945,64.886 c 0.127,-0.77 0.254,-1.366 0.341,-1.739 0.043,-0.187 0.075,-0.319 0.093,-0.391 0.002,-0.008 0.004,-0.015 0.006,-0.021 0.003,-0.01 0.006,-0.021 0.009,-0.03 0,0 0,-10e-4 10e-4,-0.002 v 0 c 0,-0.001 0.001,-0.002 0.001,-0.002 0,-10e-4 0,-10e-4 0,-0.002 1.175,-4.241 -1.295,-8.639 -5.535,-9.835 -4.252,-1.202 -8.672,1.271 -9.872,5.522 h -0.002 c -0.123,0.468 -1.553,5.557 -1.563,12.806 0.004,7.486 1.562,17.684 8.732,26.628 3.562,4.438 8.489,8.394 14.797,11.289 6.313,2.904 13.957,4.787 23.174,5.432 0.19,0.013 0.379,0.02 0.567,0.02 4.164,0 7.679,-3.224 7.974,-7.439 0.309,-4.407 -3.014,-8.232 -7.421,-8.541 C 96.569,98.044 90.863,96.518 86.645,94.575 80.335,91.62 77.17,87.918 75.11,83.853 c -2.021,-4.06 -2.691,-8.688 -2.686,-12.661 -0.003,-2.535 0.263,-4.768 0.521,-6.306 z"
         id="path1171"
         style="fill:#0066ff;fill-opacity:1" />
      <path
         d="m 163.354,70.644 v 26.25 c 0,2.209 1.789,4 4,4 h 52 c 2.207,0 4,-1.791 4,-4 v -26.25 c 0,-2.209 -1.793,-4 -4,-4 h -5.448 l -39.376,-25.008 -1.251,1.971 36.273,23.037 h -42.197 c -2.212,0 -4.001,1.791 -4.001,4 z m 48.836,2.625 h -2.005 v -0.921 c 0.701,0.248 1.372,0.555 2.005,0.921 z m -15.17,17.666 h 2.166 v 2.084 h -0.871 c -0.464,-0.393 -0.895,-0.824 -1.295,-1.282 z m 0,-15.134 c 0.428,-0.489 0.887,-0.951 1.388,-1.366 h 0.778 v 2.166 h -2.166 z m 18.584,0.392 v 0.408 h -2.084 v -2.166 h 0.362 c 0.633,0.525 1.207,1.116 1.722,1.758 z m -1.629,16.826 h -0.455 v -2.084 h 2.084 v 0.41 c -0.489,0.609 -1.034,1.17 -1.629,1.674 z m -6.955,-9.75 v -2.166 h 2 v 2.166 z m 2,1.166 v 2 h -2 v -2 z m -3.166,-1.166 h -2.168 v -2.166 h 2.168 z m 0,1.166 v 2 h -2.168 v -2 z m 0,3.168 v 2.166 h -2.168 v -2.166 z m 1.166,0 h 2 v 2.166 h -2 z m 3.166,0 h 2.168 v 2.166 h -2.168 z m 0,-1.168 v -2 h 2.168 v 2 z m 0,-3.166 v -2.166 h 2.168 v 2.166 z m 0,-3.334 v -2.166 h 2.168 v 2.166 z m -1.166,0 h -2 v -2.166 h 2 z m -3.166,0 h -2.168 v -2.166 h 2.168 z m -3.334,0 h -2.166 v -2.166 h 2.166 z m 0,1.168 v 2.166 h -2.166 v -2.166 z m 0,3.332 v 2 h -2.166 v -2 z m 0,3.168 v 2.166 h -2.166 v -2.166 z m 0,3.332 v 2.084 h -2.166 v -2.084 z m 1.166,0 h 2.168 v 2.084 h -2.168 z m 3.334,0 h 2 v 2.084 h -2 z m 3.166,0 h 2.168 v 2.084 h -2.168 z m 3.334,-1.166 v -2.166 h 2.084 v 2.166 z m 0,-3.334 v -2 h 2.084 v 2 z m 0,-3.166 v -2.166 h 2.084 v 2.166 z m 0,-3.334 v -2.166 h 2.084 v 2.166 z m -1.166,-3.334 h -2.168 v -2.166 h 2.168 z m -3.334,0 h -2 v -2.166 h 2 z m -3.166,0 h -2.168 v -2.166 h 2.168 z m -3.334,0 h -2.166 v -2.166 h 2.166 z m -3.334,1.168 v 2.166 h -2.166 v -2.166 z m 0,3.334 v 2.166 h -2.166 v -2.166 z m 0,3.332 v 2 h -2.166 v -2 z m 0,3.168 v 2.166 h -2.166 v -2.166 z m 1.168,6.584 h 2.166 v 1.155 c -0.757,-0.236 -1.481,-0.545 -2.166,-0.918 z m 3.332,0 h 2.168 v 1.692 c -0.74,-0.018 -1.467,-0.091 -2.168,-0.235 z m 3.334,0 h 2 v 1.35 c -0.648,0.158 -1.315,0.264 -2,0.313 z m 3.166,0 h 2.14 c -0.674,0.401 -1.389,0.737 -2.14,1.003 z m 6.584,-6.584 h 0.872 c -0.233,0.698 -0.522,1.371 -0.872,2.006 z m 0,-1.168 v -2 h 1.466 c -0.037,0.683 -0.123,1.352 -0.27,2 z m 0,-3.166 v -2.166 h 1.196 c 0.158,0.701 0.248,1.425 0.278,2.166 z m 0,-3.334 v -2.006 c 0.35,0.635 0.639,1.308 0.872,2.006 z m -7.75,-6.666 h -2 v -1.581 c 0.685,0.049 1.352,0.155 2,0.313 z m -3.166,0 h -2.168 v -1.375 c 0.701,-0.144 1.428,-0.218 2.168,-0.235 z m -3.334,0 h -2.166 v -0.155 c 0.685,-0.373 1.409,-0.682 2.166,-0.918 z m -6.666,4.5 v 2.166 h -1.205 c 0.253,-0.759 0.577,-1.482 0.968,-2.166 z m 0,3.334 v 2.166 h -1.809 c 0.03,-0.741 0.12,-1.465 0.278,-2.166 z m 0,3.332 v 2 h -1.53 c -0.146,-0.648 -0.232,-1.317 -0.27,-2 z m 0,3.168 v 2.166 h -0.237 c -0.391,-0.683 -0.715,-1.407 -0.968,-2.166 z M 167.686,72.394 h 22.5 v 5.5 H 180.02 v -2.666 h -1.666 v 2.666 h -10.668 z"
         id="path1173"
         style="fill:#0066ff;fill-opacity:1" />
      <rect
         x="140.52"
         y="105.728"
         width="101"
         height="78.5"
         id="rect1175"
         style="fill:#0066ff;fill-opacity:1" />
    </g>
  </g>
</svg>
