<?xml version="1.0" encoding="UTF-8" standalone="no"?>
<!-- Created with Inkscape (http://www.inkscape.org/) -->

<svg
   width="181.23958mm"
   height="79.374992mm"
   viewBox="0 0 181.23958 79.374992"
   version="1.1"
   id="svg955"
   inkscape:version="1.1 (c68e22c387, 2021-05-23)"
   sodipodi:docname="landslide-noise.svg"
   xmlns:inkscape="http://www.inkscape.org/namespaces/inkscape"
   xmlns:sodipodi="http://sodipodi.sourceforge.net/DTD/sodipodi-0.dtd"
   xmlns="http://www.w3.org/2000/svg"
   xmlns:svg="http://www.w3.org/2000/svg">
  <sodipodi:namedview
     id="namedview957"
     pagecolor="#ffffff"
     bordercolor="#666666"
     borderopacity="1.0"
     inkscape:pageshadow="2"
     inkscape:pageopacity="0.0"
     inkscape:pagecheckerboard="0"
     inkscape:document-units="mm"
     showgrid="false"
     inkscape:zoom="0.74118967"
     inkscape:cx="543.04588"
     inkscape:cy="362.25545"
     inkscape:window-width="1920"
     inkscape:window-height="1017"
     inkscape:window-x="-8"
     inkscape:window-y="-8"
     inkscape:window-maximized="1"
     inkscape:current-layer="layer1" />
  <defs
     id="defs952" />
  <g
     inkscape:label="Layer 1"
     inkscape:groupmode="layer"
     id="layer1"
     transform="translate(-92.333467,-30.671804)">
    <g
       id="g1212"
       transform="matrix(0.36728141,0,0,0.36728141,165.6973,30.779793)"
       style="fill:#0066ff;fill-opacity:1"
       inkscape:export-filename="D:\UPRI-Assets\NOAH Assets\HazardLevel\Landslide\landslide-exit.png"
       inkscape:export-xdpi="96"
       inkscape:export-ydpi="96">
      <ellipse
         transform="matrix(0.9739,-0.2268,0.2268,0.9739,-3.9065,10.9984)"
         cx="45.91"
         cy="22.5"
         rx="22.495001"
         ry="22.493999"
         id="ellipse1200"
         style="fill:#0066ff;fill-opacity:1" />
      <path
         d="m 7.223,188.698 c 6.256,2.916 13.693,0.21 16.611,-6.048 l -0.002,-0.002 19.684,-42.227 22.083,-3.969 c 0.293,9.682 2.442,22.446 9.488,35.847 7.618,14.564 21.037,29.571 42.657,41.833 1.95,1.109 4.074,1.636 6.168,1.637 4.349,0 8.573,-2.271 10.877,-6.319 3.415,-6.001 1.318,-13.634 -4.683,-17.046 -17.961,-10.26 -27.473,-21.493 -32.891,-31.736 -5.385,-10.245 -6.649,-19.805 -6.655,-26.653 0,-1.174 0.039,-2.263 0.1,-3.255 4.099,-2.464 7.456,-6.864 8.967,-14.641 2.586,-22.215 1.123,-35.346 -5.682,-55.52 -10e-4,-0.002 -0.002,-0.004 -0.002,-0.006 2.382,0.487 4.856,1.1 7.362,1.872 10.183,3.139 20.654,8.737 28.273,18.671 0.278,0.363 0.589,0.684 0.913,0.985 l -3.999,5.14 c -0.781,0.996 -1.161,2.198 -1.158,3.372 -0.003,1.635 0.733,3.264 2.122,4.346 l 6.842,5.322 -5.015,6.446 c -1.356,1.744 -1.042,4.257 0.701,5.613 l 28.414,22.105 c 1.743,1.357 4.257,1.043 5.613,-0.701 l 34.386,-44.199 c 1.356,-1.744 1.043,-4.258 -0.701,-5.613 L 169.282,61.847 c -1.743,-1.356 -4.257,-1.043 -5.613,0.701 l -5.015,6.446 -6.84,-5.322 c -1.002,-0.779 -2.2,-1.161 -3.376,-1.159 -1.635,-0.004 -3.264,0.732 -4.344,2.125 l -3.573,4.593 C 130.505,57.294 117.612,50.736 106.006,47.172 93.671,43.391 82.585,42.824 76.598,42.815 c -2.786,0 -4.469,0.131 -4.652,0.146 -0.008,0 -0.016,0.002 -0.024,0.003 -1.365,0.014 -2.687,0.176 -3.925,0.484 -8.535,2.127 -12.289,14.039 -9.42,23.992 0.101,0.517 0.211,1.059 0.317,1.592 0.652,-0.659 1.294,-1.404 1.893,-2.224 2.54,-3.425 3.897,-7.433 3.91,-7.471 1.325,-4.251 5.161,-7.072 9.559,-7.072 0.993,0 1.982,0.149 2.941,0.442 2.551,0.785 4.646,2.517 5.896,4.878 1.251,2.361 1.506,5.067 0.722,7.62 -0.379,1.2 -1.46,4.314 -3.57,8.18 -3.419,6.169 -7.461,10.762 -12.362,14.056 -1.334,0.895 -3.024,1.856 -5.03,2.685 1.055,6.937 1.764,14.154 1.582,21.133 l -31.723,5.704 c -3.989,0.717 -7.405,3.346 -9.117,7.021 L 1.173,172.087 c -2.915,6.257 -0.209,13.695 6.05,16.611 z M 170.902,89.08 c 5.013,3.9 5.916,11.125 2.016,16.139 -3.9,5.013 -11.126,5.914 -16.139,2.015 -5.013,-3.899 -5.915,-11.125 -2.015,-16.138 3.9,-5.014 11.126,-5.917 16.138,-2.016 z m -24.437,-22.6 c 0.496,-0.638 1.224,-0.966 1.975,-0.968 0.537,0.002 1.069,0.169 1.534,0.53 l 6.839,5.321 -20.672,26.572 -6.84,-5.322 c -0.638,-0.498 -0.966,-1.23 -0.968,-1.979 0.002,-0.541 0.169,-1.069 0.525,-1.526 l 4.19,-5.386 c 0.922,0.354 1.898,0.545 2.882,0.545 1.7,0 3.413,-0.54 4.865,-1.654 3.424,-2.629 4.125,-7.476 1.648,-10.966 z"
         id="path1202"
         style="fill:#0066ff;fill-opacity:1" />
      <path
         d="m 78.489,72.428 c 2.294,-4.2 3.303,-7.458 3.413,-7.809 1.301,-4.223 -1.07,-8.699 -5.292,-9.998 -4.212,-1.295 -8.677,1.06 -9.987,5.261 h -0.002 v 0.001 c -10e-4,0.002 -0.002,0.01 -0.008,0.03 -0.124,0.414 -1.593,4.545 -4.211,8.077 -1.348,1.847 -2.967,3.496 -4.649,4.567 -1.711,1.075 -3.368,1.662 -5.596,1.679 -3.566,0.03 -9.671,-1.828 -18.51,-9.881 -3.267,-2.978 -8.325,-2.744 -11.303,0.521 -2.976,3.265 -2.742,8.325 0.522,11.303 10.497,9.575 20.172,14.03 29.29,14.059 0.025,0.001 0.052,0.001 0.077,0.001 5.647,0 10.671,-1.867 14.532,-4.457 5.856,-3.93 9.412,-9.18 11.724,-13.354 z"
         id="path1204"
         style="fill:#0066ff;fill-opacity:1" />
      <rect
         x="131.789"
         y="27.174999"
         width="109.999"
         height="5.3340001"
         id="rect1206"
         style="fill:#0066ff;fill-opacity:1" />
      <rect
         x="177.12199"
         y="41.174999"
         width="51.334"
         height="5.3340001"
         id="rect1208"
         style="fill:#0066ff;fill-opacity:1" />
      <rect
         x="147.789"
         y="13.175"
         width="51.334"
         height="5.3340001"
         id="rect1210"
         style="fill:#0066ff;fill-opacity:1" />
    </g>
    <path
       fill-rule="evenodd"
       clip-rule="evenodd"
       d="m 112.79375,109.87876 c 0,0 0.0305,2.6e-4 0.0335,2.6e-4 h 48.0047 c 1.68305,0 3.0479,-1.36485 3.0479,-3.04791 V 33.720377 c 0,-1.683305 -1.36485,-3.047915 -3.0479,-3.047915 h -48.0047 c 0,0 -0.0305,1.82e-4 -0.0335,1.82e-4 -0.73271,-0.08412 -1.48007,0.09936 -2.09698,0.531586 -0.81438,0.570357 -1.29931,1.502196 -1.29931,2.496428 v 73.150002 c 0,0.99423 0.48493,1.92597 1.29931,2.49654 0.61691,0.4319 1.36396,0.61569 2.09606,0.53156 z m 3.08146,-7.51801 V 38.190666 l 20.95442,7.61979 v 48.930489 z m 13.92593,1.42248 11.11816,-4.043097 c 1.20425,-0.437979 2.00616,-1.582774 2.00616,-2.864426 V 43.675664 c 0,-1.281649 -0.80191,-2.426384 -2.00616,-2.8644 l -11.11816,-4.042969 h 27.9829 v 67.014935 z"
       fill="#000000"
       id="path2336"
       style="fill:#0066ff;fill-opacity:1;stroke-width:3.04792"
       inkscape:export-filename="D:\UPRI-Assets\NOAH Assets\HazardLevel\Landslide\landslide-exit.png"
       inkscape:export-xdpi="96"
       inkscape:export-ydpi="96" />
  </g>
</svg>
