<?xml version="1.0" encoding="UTF-8" standalone="no"?>
<!-- Created with Inkscape (http://www.inkscape.org/) -->

<svg
   width="181.23958mm"
   height="79.374992mm"
   viewBox="0 0 181.23958 79.374992"
   version="1.1"
   id="svg955"
   inkscape:version="1.1 (c68e22c387, 2021-05-23)"
   sodipodi:docname="landslide-noise.svg"
   xmlns:inkscape="http://www.inkscape.org/namespaces/inkscape"
   xmlns:sodipodi="http://sodipodi.sourceforge.net/DTD/sodipodi-0.dtd"
   xmlns="http://www.w3.org/2000/svg"
   xmlns:svg="http://www.w3.org/2000/svg">
  <sodipodi:namedview
     id="namedview957"
     pagecolor="#ffffff"
     bordercolor="#666666"
     borderopacity="1.0"
     inkscape:pageshadow="2"
     inkscape:pageopacity="0.0"
     inkscape:pagecheckerboard="0"
     inkscape:document-units="mm"
     showgrid="false"
     inkscape:zoom="0.74118967"
     inkscape:cx="543.04588"
     inkscape:cy="362.25545"
     inkscape:window-width="1920"
     inkscape:window-height="1017"
     inkscape:window-x="-8"
     inkscape:window-y="-8"
     inkscape:window-maximized="1"
     inkscape:current-layer="layer1" />
  <defs
     id="defs952" />
  <g
     inkscape:label="Layer 1"
     inkscape:groupmode="layer"
     id="layer1"
     transform="translate(-92.333467,-30.671804)">
    <g
       style="clip-rule:evenodd;fill:#0066ff;fill-opacity:1;fill-rule:evenodd;image-rendering:optimizeQuality;shape-rendering:geometricPrecision;text-rendering:geometricPrecision"
       id="g1256"
       transform="matrix(0.0013764,0,0,0.0013764,148.89544,28.36586)"
       inkscape:export-filename="D:\UPRI-Assets\NOAH Assets\HazardLevel\Landslide\landslide-power.png"
       inkscape:export-xdpi="96"
       inkscape:export-ydpi="96">
      <g
         id="g1241"
         style="fill:#0066ff;fill-opacity:1">
        <path
           class="fil0"
           d="m 43320.94,11778.04 c 30.04,-9.39 61.66,-15.39 94.48,-17.45 50.36,-3.16 99.12,3.18 144.54,17.45 h 3588.58 l -2901.73,-904.15 -1330.28,-10.5 -1330.28,10.5 -2901.73,904.15 h 3620.33 c 45.42,-14.27 94.18,-20.61 144.54,-17.45 32.82,2.06 64.44,8.06 94.48,17.45 z M 531.98,55367.33 c -130.52,43.68 -271.75,-26.71 -315.43,-157.23 -43.68,-130.52 26.71,-271.75 157.23,-315.43 2681.44,-905.4 5125.76,-1601.91 7395.05,-2121.05 -17.36,-68.46 -16.77,-142.39 5.5,-214.83 l 1435.27,-4630.2 c 71.08,-229.32 128.19,-460.45 171.05,-692.18 42.54,-230.06 71.51,-464.46 86.64,-702.01 l 491.16,-7712.83 c -942.24,-230.78 -1837.4,-515.12 -2672.62,-848.1 -127.82,-50.69 -190.34,-195.43 -139.65,-323.25 50.69,-127.82 195.43,-190.34 323.25,-139.65 789.16,314.63 1633.35,584.79 2521.17,806.17 l 250.23,-3929.36 c -864.45,-105.6 -1686.29,-272.89 -2455.48,-498.84 l -874.56,272.5 v 2106.66 h 588.25 c 138.07,0 250,111.93 250,250 0,138.07 -111.93,250 -250,250 h -588.25 v 88.69 c 0,220.91 -179.09,400 -400,400 -220.91,0 -400,-179.09 -400,-400 v -88.69 h -588.23 c -138.07,0 -250,-111.93 -250,-250 0,-138.07 111.93,-250 250,-250 h 588.23 v -2384.25 c 0,-179.81 118.65,-331.9 281.93,-382.28 29.71,-19.16 62.46,-34.67 97.86,-45.7 l 32.8,-10.22 c -767.76,-317.73 -1466.22,-703.07 -2081.72,-1152.81 -111.1,-81.43 -135.14,-237.53 -53.71,-348.63 81.43,-111.1 237.53,-135.14 348.63,-53.71 734.29,536.54 1593.5,977.48 2552.99,1316.41 l 3087.72,-962.1 209.96,-3296.99 H 4225.9 v 1930.73 h 588.24 c 138.07,0 250,111.93 250,250 0,138.07 -111.93,250 -250,250 H 4225.9 v 88.69 c 0,220.91 -179.09,400 -400,400 -220.91,0 -400,-179.09 -400,-400 v -88.69 h -588.23 c -138.07,0 -250,-111.93 -250,-250 0,-138.07 111.93,-250 250,-250 h 588.23 v -2384.24 c 0,-180.92 120.13,-333.76 284.96,-383.18 42.44,-26.96 90.71,-46.32 143.27,-55.74 l 6868.83,-1238.73 8.05,-126.4 c -1129.68,-174.74 -2296.77,-424.5 -3523.61,-739.47 -133.21,-33.97 -213.66,-169.52 -179.69,-302.73 33.97,-133.21 169.52,-213.66 302.73,-179.69 1195.26,306.86 2332.28,550.75 3432.38,722.36 l 226.57,-3557.84 h -4078.6 v 2030.98 h 588.25 c 138.07,0 250,111.93 250,250 0,138.07 -111.93,250 -250,250 h -588.25 v 88.69 c 0,220.91 -179.09,400 -400,400 -220.91,0 -400,-179.09 -400,-400 v -88.69 h -588.23 c -138.07,0 -250,-111.93 -250,-250 0,-138.07 111.93,-250 250,-250 h 588.23 v -2384.24 c 0,-179.8 118.64,-331.89 281.9,-382.27 29.72,-19.17 62.48,-34.69 97.89,-45.72 l 3312.66,-1032.19 c 184.24,-106.64 321.8,-198.52 420.34,-307.78 95.54,-105.94 167.86,-244.5 230.97,-454.46 l 938.98,-4779.53 c 27.83,-158.13 150.06,-290.38 317.07,-322.98 216.6,-42.28 426.47,99.03 468.75,315.63 l 940.43,4786.88 c 63.11,209.96 135.43,348.53 230.97,454.46 98.45,109.15 235.83,200.96 419.82,307.48 l 3290.32,1025.23 c 44.5,10.9 86.07,29.26 123.33,53.65 162.16,51.04 279.77,202.59 279.77,381.6 v 2384.24 h 588.23 c 138.07,0 250,111.93 250,250 0,138.07 -111.93,250 -250,250 h -588.23 v 88.69 c 0,220.91 -179.09,400 -400,400 -220.91,0 -400,-179.09 -400,-400 v -88.69 h -588.24 c -138.07,0 -250,-111.93 -250,-250 0,-138.07 111.93,-250 250,-250 h 588.24 v -2030.98 h -4054.63 l 241.8,3797.02 c 2388.59,166.71 4658.84,-65.5 7051.92,-807.41 4160.9,-1289.98 8707.96,-4120.12 14899.56,-9067.96 107.33,-85.75 263.86,-68.26 349.61,39.07 85.75,107.33 68.26,263.86 -39.07,349.61 -6243.13,4989.01 -10839.37,7846.22 -15063.62,9155.84 -2195.15,680.55 -4285.93,943.28 -6449.91,869.73 l 6025.23,1086.6 c 52.56,9.42 100.83,28.78 143.27,55.74 164.83,49.42 284.96,202.26 284.96,383.18 v 2384.24 h 588.23 c 138.07,0 250,111.93 250,250 0,138.07 -111.93,250 -250,250 h -588.23 v 88.69 c 0,220.91 -179.09,400 -400,400 -220.91,0 -400,-179.09 -400,-400 v -88.69 h -588.24 c -138.07,0 -250,-111.93 -250,-250 0,-138.07 111.93,-250 250,-250 h 588.24 V 28947.42 H 13011.5 l 210.44,3304.61 3862.26,1203.44 c 35.4,11.03 68.15,26.54 97.86,45.7 5.63,1.74 11.2,3.61 16.73,5.59 4465.9,-956.73 9276.07,-3270.06 13504.99,-7185.4 100.85,-93.3 258.27,-87.18 351.57,13.67 93.3,100.85 87.18,258.27 -13.67,351.57 -4249.93,3934.8 -9078.92,6279.08 -13577.69,7273.34 v 2307.76 h 588.23 c 138.07,0 250,111.93 250,250 0,138.07 -111.93,250 -250,250 h -588.23 v 88.69 c 0,220.91 -179.09,400 -400,400 -220.91,0 -400,-179.09 -400,-400 v -88.69 h -588.24 c -138.07,0 -250,-111.93 -250,-250 0,-138.07 111.93,-250 250,-250 h 588.24 v -2106.66 l -76.31,-23.78 c -1101.99,202.71 -2180.6,323.59 -3222.34,366.52 l 281.36,4418.35 c 2461.35,217.37 5106.43,91.18 7760.61,-450.56 4349.88,-887.85 8720.81,-2892.02 12341.44,-6327.91 99.77,-94.92 257.62,-90.99 352.54,8.78 94.92,99.77 90.99,257.62 -8.78,352.54 -3693.95,3505.47 -8151.09,5549.75 -12585.6,6454.87 -2674.03,545.8 -5340.98,677.12 -7828.21,464.69 l 452.76,7109.86 c 15.13,237.56 44.11,471.97 86.66,702.05 42.85,231.73 99.96,462.84 171.04,692.14 l 1135.53,3663.28 c 0.9,2.94 1.76,5.88 2.59,8.82 3500.47,-230.35 6672.96,-5.01 9887.77,489.56 136.45,20.49 230.45,147.73 209.96,284.18 -20.49,136.45 -147.73,230.45 -284.18,209.96 -3236.42,-497.89 -6425.98,-720.73 -9950.32,-474.92 -9.1,13.19 -19.08,26 -29.97,38.3 -145.83,164.82 -397.68,180.21 -562.5,34.38 l -27.9,-24.78 c -151.02,12.75 -302.61,26.27 -454.94,40.77 -1853.99,176.44 -3808.55,482.59 -5916.02,944.89 -58.18,28.72 -121.91,42.41 -185.39,41.02 -2346.87,522.77 -4883.59,1238.45 -7681.81,2183.28 z m 8546.9,-2877.86 c 1826.83,-373.97 3541.66,-630.23 5179.64,-786.48 l -2336.14,-2074.77 z m 33753.35,3812.47 c -134.83,-26.96 -222.27,-158.14 -195.31,-292.97 26.96,-134.83 158.14,-222.27 292.97,-195.31 1126.44,228 2297.91,453.93 3521.42,674.52 1222.19,220.34 2494.6,435.03 3823.66,640.66 135.91,21.03 229.03,148.27 208,284.18 -21.03,135.91 -148.27,229.03 -284.18,208 -1333.79,-206.36 -2610.04,-421.69 -3835.38,-642.6 -1224.01,-220.68 -2399.04,-447.33 -3531.18,-676.48 z m 14262.21,-1632.03 c 208.83,69.89 321.46,295.86 251.57,504.69 -69.89,208.83 -295.86,321.46 -504.69,251.57 -15335.81,-5178.22 -22823.92,-3451.58 -34297.59,-805.94 -4322.1,996.61 -9206.29,2122.84 -15298.91,3065.5 -217.46,33.65 -421.04,-115.35 -454.69,-332.81 -33.65,-217.46 115.35,-421.04 332.81,-454.69 6045.32,-935.35 10924.77,-2060.48 15242.67,-3056.12 5734.06,-1322.18 10484.19,-2416.93 15698.29,-2553.3 l 1562.17,-5039.59 c 95.52,-308.15 172.34,-619.15 230.09,-931.43 57.42,-310.53 96.48,-626.05 116.79,-945.01 l 640.57,-10058.93 c -1335.48,-384.54 -2696.95,-934.55 -4088.9,-1668.01 -121.88,-64.18 -168.67,-215.03 -104.49,-336.91 64.18,-121.88 215.03,-168.67 336.91,-104.49 1323.74,697.52 2618.7,1224.7 3889.03,1598.24 l 372.88,-5855.43 h -4691 v 2900.81 h 908.87 c 138.07,0 250,111.93 250,250 0,138.07 -111.93,250 -250,250 h -908.87 v 198.58 c 0,220.91 -179.09,400 -400,400 -220.91,0 -400,-179.09 -400,-400 v -198.58 h -908.86 c -138.07,0 -250,-111.93 -250,-250 0,-138.07 111.93,-250 250,-250 h 908.86 v -3238.92 c 0,-185.84 126.76,-342.08 298.52,-387 33.66,-24.01 71.62,-43.18 113.24,-56.14 l 5232.82,-1630.5 292.53,-4593.66 h -8693.11 v 2768.05 h 908.87 c 138.07,0 250,111.93 250,250 0,138.07 -111.93,250 -250,250 h -908.87 v 198.57 c 0,220.91 -179.09,400 -400,400 -220.91,0 -400,-179.09 -400,-400 v -198.57 h -908.86 c -138.07,0 -250,-111.93 -250,-250 0,-138.07 111.93,-250 250,-250 h 908.86 v -3238.92 c 0,-186.71 127.94,-343.53 300.92,-387.62 46.16,-32.58 100,-55.84 159.28,-66.47 l 9197.44,-1658.67 94.36,-1481.71 c -1818.21,544.28 -3490.79,632.35 -4877.2,86.77 -128.36,-50.15 -191.75,-194.88 -141.6,-323.24 50.15,-128.36 194.88,-191.75 323.24,-141.6 1323.93,521 2949.18,411 4729.16,-149.61 l 240.13,-3770.78 h -5669.73 v 2900.82 h 908.87 c 138.07,0 250,111.93 250,250 0,138.07 -111.93,250 -250,250 h -908.87 v 198.58 c 0,220.91 -179.09,400 -400,400 -220.91,0 -400,-179.09 -400,-400 v -198.58 h -908.86 c -138.07,0 -250,-111.93 -250,-250 0,-138.07 111.93,-250 250,-250 h 908.86 v -3238.92 c 0,-185.84 126.75,-342.06 298.5,-386.99 33.66,-24.01 71.63,-43.19 113.26,-56.16 l 4400.57,-1371.17 c 261.81,-150.96 457.6,-281.14 601.38,-440.55 140.87,-156.19 246.03,-357.42 336.25,-660.82 L 42522.6,2988.67 c 27.84,-158.13 150.06,-290.38 317.07,-322.98 216.6,-42.28 426.47,99.03 468.75,315.63 l 1246.13,6342.93 c 90.22,303.4 195.38,504.63 336.25,660.82 143.66,159.27 339.21,289.35 600.67,440.14 l 4331.08,1349.52 c 3652.57,-2803.47 7107.81,-6315.68 9391.85,-9323.98 83.05,-109.48 239.15,-130.9 348.63,-47.85 109.48,83.05 130.9,239.15 47.85,348.63 -2278.38,3000.84 -5709.46,6497.44 -9346.87,9311.64 26.31,53.3 41.1,113.31 41.1,176.77 v 3238.92 h 908.86 c 138.07,0 250,111.93 250,250 0,138.07 -111.93,250 -250,250 h -908.86 v 198.58 c 0,220.91 -179.09,400 -400,400 -220.91,0 -400,-179.09 -400,-400 v -198.58 h -908.87 c -138.07,0 -250,-111.93 -250,-250 0,-138.07 111.93,-250 250,-250 h 908.87 V 12638.2 c -821.43,608.92 -1649.95,1179.33 -2474.88,1697.95 -992.61,624.04 -1981.16,1173.45 -2947.62,1625.69 l 154.45,2425.3 9037.01,1629.74 c 59.28,10.63 113.12,33.89 159.28,66.47 172.98,44.09 300.92,200.91 300.92,387.62 v 3238.92 h 908.86 c 138.07,0 250,111.93 250,250 0,138.07 -111.93,250 -250,250 h -908.86 v 198.57 c 0,220.91 -179.09,400 -400,400 -220.91,0 -400,-179.09 -400,-400 v -198.57 h -908.87 c -138.07,0 -250,-111.93 -250,-250 0,-138.07 111.93,-250 250,-250 h 908.87 v -2768.05 h -8534.52 l 293.17,4603.75 5177.12,1613.15 c 50.5,12.37 97.23,34.34 138.16,63.84 170.95,45.48 296.91,201.3 296.91,386.56 v 3238.92 h 908.86 c 138.07,0 250,111.93 250,250 0,138.07 -111.93,250 -250,250 h -908.86 v 198.58 c 0,220.91 -179.09,400 -400,400 -220.91,0 -400,-179.09 -400,-400 v -198.58 h -908.87 c -138.07,0 -250,-111.93 -250,-250 0,-138.07 111.93,-250 250,-250 h 908.87 v -2900.81 h -4659.25 l 418.14,6566.14 c 1093.65,15.29 2171.49,-77.53 3236.42,-267.07 1201.42,-213.83 2387.36,-550.61 3561.98,-993.2 -528.47,-239.27 -1063.16,-492.5 -1604.82,-760.15 -123.5,-60.94 -174.22,-210.48 -113.28,-333.98 60.94,-123.5 210.48,-174.22 333.98,-113.28 688.58,340.24 1366.12,657.06 2034.17,951.33 2244.9,-922.68 4450.97,-2223.23 6647.33,-3782.84 112.18,-79.82 267.84,-53.58 347.66,58.6 79.82,112.18 53.58,267.84 -58.6,347.66 -2081.21,1477.84 -4173.46,2727.28 -6302.01,3650.46 630.9,266.8 1253.66,513.4 1869.64,740.54 1465.45,540.38 2891.21,969.98 4295.8,1299.1 134.29,31.28 217.8,165.51 186.52,299.8 -31.28,134.29 -165.51,217.8 -299.8,186.52 -1424.54,-333.79 -2869.76,-769.2 -4354.4,-1316.66 -767.95,-283.19 -1546.85,-596.58 -2339.31,-941.6 -1355.2,543.56 -2726.01,951.97 -4118.92,1199.88 -1083.2,192.78 -2179.05,288.52 -3290.47,275.68 l 595.97,9358.6 c 20.31,318.96 59.37,634.48 116.79,945.01 57.75,312.28 134.57,623.28 230.09,931.43 l 1844.76,5951.25 c 2716.7,542.19 5680.47,1344.89 9010.94,2469.44 z m -18191.17,-3394.7 c 271.31,-1.64 543.8,-1.13 818.18,2.62 l 2343.13,-2671.02 h -2334.16 z m 1855.04,29.62 c 1497.91,57.89 3050.63,199.26 4687.82,438.44 l -2536.22,-2891.12 z m 5916.43,633.5 c 172.6,29.64 346.43,60.65 521.01,92.47 l -1061.36,-3423.99 h -2379.15 l 2893.29,3298.16 c 9.42,10.77 18.15,21.91 26.21,33.36 z M 10779.11,38498.12 c 667.21,140.75 1356,254.81 2062.19,340.08 l -274.89,-4316.47 c -521.34,1.48 -1032.15,-17.12 -1530.55,-55.39 z m 1936.97,825.85 c -672.9,-83.09 -1330.44,-191.59 -1968.91,-324.18 l -361.39,5674.95 z M 8679.55,33609.91 c 510.79,118.8 1042.62,212.78 1592.91,280.83 l 50.49,-792.89 z m 2387.91,360.15 c 477.61,36.6 967.26,54.71 1467.25,53.83 l -91.38,-1434.95 c -0.74,-7.82 -1.22,-15.69 -1.5,-23.58 l -230.4,-3617.94 h -824.12 z m 2266.22,36.58 c 712.82,-29.31 1443.9,-95.81 2188.88,-201.26 l -2246.27,-699.91 z M 11555.76,26302.1 c 164.31,20.63 327.91,39.6 490.83,56.77 l -237.3,-3726.38 h -19.84 z m 522.99,561.69 c -184.07,-18.8 -368.97,-39.84 -554.74,-63 l -85.76,1346.63 h 722.24 z m 884.55,13890.36 -2643.56,6070.09 h 3034.55 c -8.06,-80.06 -14.63,-160.02 -19.71,-239.84 z m -515.57,-20208.37 c -36.79,-88.92 -70.37,-186.18 -101.44,-293.8 -3.33,-11.51 -6.09,-23.04 -8.36,-34.58 l -1.02,0.2 -549.75,-2798.26 -549.74,2798.26 c -4.31,22.07 -10.38,43.34 -18,63.73 -28.64,96.04 -59.4,183.69 -92.82,264.46 l 657.66,-5.19 3.13,0.02 3.13,-0.02 z m -660.34,791.72 -988.44,7.8 -1563.56,487.19 h 2076.83 c 40.82,-10.96 84.08,-15.58 128.59,-12.79 27.04,1.7 53.29,6.06 78.5,12.79 h 560.13 c 25.21,-6.73 51.46,-11.09 78.5,-12.79 44.51,-2.79 87.77,1.83 128.59,12.79 h 2052.86 l -1563.56,-487.19 z m -3955.77,6809.92 h 2806.57 l 32.61,-512.02 z m 5128.93,0 h 2686.82 l -2718.03,-490.17 z m -1635.54,20950.26 -1290.99,-1146.55 c -19.51,70.95 -40.14,141.58 -61.92,211.84 l -1034.37,3336.89 z m -458.87,-1473.44 1021.54,907.25 901.62,-907.25 z m 1618.92,1437.79 1959.82,1740.56 -818.22,-2639.62 c -19.82,-63.94 -38.69,-128.17 -56.63,-192.68 z M 42575.75,16064.05 c 229.75,-87.29 461.68,-181.53 695.36,-281.93 l -204.04,-3204.08 h -269.33 z m 1472.89,-635.76 c 889.52,-427.14 1800,-938.17 2715.97,-1514.02 659.05,-414.33 1320.42,-862.04 1978.51,-1336.23 h -4875.99 z m -744.13,878.34 c -256.46,107.12 -511.01,206.8 -763.22,298.5 l -108.18,1698.85 416.87,-3.29 3.13,0.02 3.13,-0.02 575.54,4.54 z m 916.48,18661.32 c -913.13,-68.25 -1837.23,-211.11 -2773.84,-434.67 l -54.39,107.47 -508.78,7989.57 z m -2541.58,-893.59 c 930.19,215.21 1847.51,348.64 2753.59,406.78 l 25.2,-57.87 -330.3,-5186.8 z m 12463.08,-8800.58 c -133.21,-35.59 -212.35,-172.45 -176.76,-305.66 35.59,-133.21 172.45,-212.35 305.66,-176.76 856.82,228.74 1720.18,427.16 2585.24,594.32 864.73,167.09 1733.95,303.45 2602.85,408.14 136.99,16.18 234.93,140.36 218.75,277.35 -16.18,136.99 -140.36,234.93 -277.35,218.75 -877.47,-105.72 -1758.44,-244.04 -2638.01,-414 -879.15,-169.88 -1754.25,-370.91 -2620.38,-602.14 z m -3475.96,-8112.74 c -131.05,-42.06 -203.19,-182.42 -161.13,-313.47 42.06,-131.05 182.42,-203.19 313.47,-161.13 1628.43,524.24 3105.58,889.86 4465.92,1109.59 1355.93,219.02 2596.61,293.29 3756.36,235.53 137.52,-6.47 254.27,99.78 260.74,237.3 6.47,137.52 -99.78,254.27 -237.3,260.74 -1192.7,59.41 -2466.96,-16.72 -3857.92,-241.39 -1386.51,-223.96 -2888.26,-595.38 -4540.14,-1127.17 z m -8562.83,6315.7 1143.57,-2534.9 h -982.15 z m 1560.77,-1517.59 -1571.29,3483.01 820.22,-6.47 3.13,0.02 3.13,-0.02 966.68,7.63 z M 41521.5,32619.2 43886,27947.25 h -2066.99 z m 3047.7,3547.07 -3794.16,8712.05 h 4361.14 c -17.8,-151.99 -31.55,-303.89 -41.2,-455.54 z m -575.67,-26091.31 c -80.87,-159.02 -150.5,-341.03 -212.56,-555.99 -3.33,-11.51 -6.09,-23.04 -8.36,-34.58 l -1.02,0.2 -855.36,-4353.87 -855.36,4353.87 c -4.28,21.95 -10.32,43.11 -17.87,63.39 -59.91,202.39 -126.88,375.18 -204.08,526.99 l 1074.48,-8.48 3.13,0.02 3.13,-0.02 z m 5483.41,10066.88 -5187.71,-935.56 59.58,935.56 z m -7960.94,0 61.42,-964.49 -5348.14,964.49 z m 800.07,0 h 1232.67 l -66.18,-1039.28 -629.45,-4.97 -470.78,3.72 z m -3631.57,7005.41 h 2385.39 l 48.29,-758.31 z m 3243.21,-906.85 -57.75,906.85 h 2124.89 l -57.73,-906.6 -1020.59,-8.06 z m 2819.56,158.63 47.65,748.22 h 2353.64 z m -2754.38,21407.78 -1495.32,-1704.57 c -33.5,127.89 -69.85,255.04 -109,381.36 l -410.17,1323.21 z m -806.65,-2128.49 1723.67,1964.87 1723.67,-1964.87 z m 4170.72,384.35 -1530.03,1744.14 h 2059.48 l -410.17,-1323.21 c -43.19,-139.35 -82.96,-279.7 -119.28,-420.93 z"
           id="path1239"
           style="fill:#0066ff;fill-opacity:1" />
      </g>
      <text
         x="0"
         y="60015"
         fill="#000000"
         font-size="5px"
         font-weight="bold"
         font-family="'Helvetica Neue', Helvetica, Arial-Unicode, Arial, Sans-serif"
         id="text1243"
         style="fill:#0066ff;fill-opacity:1">Created by Olena Panasovska</text>
      <text
         x="0"
         y="60020"
         fill="#000000"
         font-size="5px"
         font-weight="bold"
         font-family="'Helvetica Neue', Helvetica, Arial-Unicode, Arial, Sans-serif"
         id="text1245"
         style="fill:#0066ff;fill-opacity:1">from the Noun Project</text>
    </g>
    <g
       id="g4454"
       transform="matrix(0.26458436,0,0,0.26458436,129.76363,74.998586)"
       style="fill:#0066ff;fill-opacity:1"
       inkscape:export-filename="D:\UPRI-Assets\NOAH Assets\HazardLevel\Landslide\landslide-power.png"
       inkscape:export-xdpi="96"
       inkscape:export-ydpi="96">
      <path
         fill="#000000"
         d="M 50,0.5 C 22.706,0.5 0.5,22.706 0.5,50 0.5,77.294 22.706,99.5 50,99.5 77.295,99.5 99.5,77.294 99.5,50 99.5,22.706 77.295,0.5 50,0.5 Z m 0,10 c 8.824,0 16.981,2.91 23.563,7.818 L 18.318,73.563 C 13.41,66.98 10.5,58.824 10.5,50 10.5,28.22 28.22,10.5 50,10.5 Z m 0,79 c -8.567,0 -16.5,-2.751 -22.979,-7.402 L 82.098,27.021 C 86.75,33.5 89.5,41.433 89.5,50 89.5,71.78 71.78,89.5 50,89.5 Z"
         id="path4452"
         style="fill:#0066ff;fill-opacity:1" />
    </g>
  </g>
</svg>
