<?xml version="1.0" encoding="UTF-8" standalone="no"?>
<!-- Created with Inkscape (http://www.inkscape.org/) -->

<svg
   width="181.23958mm"
   height="79.374992mm"
   viewBox="0 0 181.23958 79.374992"
   version="1.1"
   id="svg955"
   inkscape:version="1.1 (c68e22c387, 2021-05-23)"
   sodipodi:docname="landslide-noise.svg"
   xmlns:inkscape="http://www.inkscape.org/namespaces/inkscape"
   xmlns:sodipodi="http://sodipodi.sourceforge.net/DTD/sodipodi-0.dtd"
   xmlns="http://www.w3.org/2000/svg"
   xmlns:svg="http://www.w3.org/2000/svg"
   xmlns:i="http://ns.adobe.com/AdobeIllustrator/10.0/">
  <sodipodi:namedview
     id="namedview957"
     pagecolor="#ffffff"
     bordercolor="#666666"
     borderopacity="1.0"
     inkscape:pageshadow="2"
     inkscape:pageopacity="0.0"
     inkscape:pagecheckerboard="0"
     inkscape:document-units="mm"
     showgrid="false"
     inkscape:zoom="0.74118967"
     inkscape:cx="543.04588"
     inkscape:cy="362.25545"
     inkscape:window-width="1920"
     inkscape:window-height="1017"
     inkscape:window-x="-8"
     inkscape:window-y="-8"
     inkscape:window-maximized="1"
     inkscape:current-layer="layer1" />
  <defs
     id="defs952" />
  <g
     inkscape:label="Layer 1"
     inkscape:groupmode="layer"
     id="layer1"
     transform="translate(-92.333467,-30.671804)">
    <g
       id="g7682"
       transform="matrix(0.26106263,0,0,0.26106263,-132.69902,-315.27932)"
       inkscape:export-filename="D:\UPRI-Assets\NOAH Assets\HazardLevel\Landslide\landslide-noise.png"
       inkscape:export-xdpi="96"
       inkscape:export-ydpi="96">
      <polygon
         points="324.811,82.313 324.809,82.312 324.807,82.313 "
         id="polygon1324-6-2"
         style="fill:#0066ff;fill-opacity:1"
         transform="matrix(1.1218896,0,0,1.1218896,813.47591,1354.3176)" />
      <polygon
         points="393.225,14.488 389.881,20.811 395.864,21.823 400.966,20.559 398.327,14.235 "
         id="polygon1326-7-3"
         style="fill:#0066ff;fill-opacity:1"
         transform="matrix(1.1218896,0,0,1.1218896,825.47591,1380.3176)" />
      <polygon
         points="410.466,182.429 414.529,178.94 410.326,170.804 403.798,171.968 398.775,176.417 399.416,181.329 403.253,182.606 "
         id="polygon1328-1-9"
         style="fill:#0066ff;fill-opacity:1"
         transform="matrix(1.1218896,0,0,1.1218896,813.47591,1354.3176)" />
      <polygon
         points="381.776,184.144 382.582,175.021 376.446,172.51 369.82,173.579 367.732,178.07 370.29,181.203 376.477,184.915 "
         id="polygon1330-0-5"
         style="fill:#0066ff;fill-opacity:1"
         transform="matrix(1.1218896,0,0,1.1218896,813.47591,1354.3176)" />
      <polygon
         points="295.733,157.378 291.174,159.872 289.327,165.416 297.412,165.878 300.415,162.183 "
         id="polygon1334-5-6"
         style="fill:#0066ff;fill-opacity:1"
         transform="matrix(1.1218896,0,0,1.1218896,813.47591,1354.3176)" />
      <polygon
         points="305.483,146.378 300.924,148.872 299.077,154.416 307.162,154.878 310.165,151.183 "
         id="polygon1336-8-7"
         style="fill:#0066ff;fill-opacity:1"
         transform="matrix(1.1218896,0,0,1.1218896,813.47591,1354.3176)" />
      <polygon
         points="327.69,177.672 324.563,183.074 325.7,186.77 332.808,186.77 338.495,184.212 339.347,179.947 333.092,177.104 "
         id="polygon1338-1-9"
         style="fill:#0066ff;fill-opacity:1"
         transform="matrix(1.1218896,0,0,1.1218896,813.47591,1354.3176)" />
      <polygon
         points="306.808,189.267 312.495,186.708 313.347,182.443 307.092,179.6 301.69,180.168 298.563,185.57 299.7,189.267 "
         id="polygon1340-6-1"
         style="fill:#0066ff;fill-opacity:1"
         transform="matrix(1.1218896,0,0,1.1218896,813.47591,1354.3176)" />
      <polygon
         points="340.145,192.867 330.906,193.839 325.558,203.078 327.502,209.399 339.659,209.399 349.384,205.024 350.842,197.73 "
         id="polygon1342-6-6"
         style="fill:#0066ff;fill-opacity:1"
         transform="matrix(1.1218896,0,0,1.1218896,813.47591,1354.3176)" />
      <polygon
         points="357.494,175.878 349.994,173.878 348.244,179.378 351.244,183.128 357.244,180.628 "
         id="polygon1344-5-4"
         style="fill:#0066ff;fill-opacity:1"
         transform="matrix(1.1218896,0,0,1.1218896,813.47591,1354.3176)" />
      <polygon
         points="347.244,45.294 347.494,40.544 342.748,39.278 339.994,38.544 338.576,43.001 338.244,44.044 341.244,47.794 "
         id="polygon1346-9-7"
         style="fill:#0066ff;fill-opacity:1"
         transform="matrix(1.1218896,0,0,1.1218896,825.47591,1380.3176)" />
      <polygon
         points="367.245,198.627 367.495,193.877 359.995,191.877 358.245,197.377 361.245,201.127 "
         id="polygon1348-2-8"
         style="fill:#0066ff;fill-opacity:1"
         transform="matrix(1.1218896,0,0,1.1218896,813.47591,1354.3176)" />
      <g
         id="g1826-2-3"
         transform="matrix(-4.0353228,-0.00832593,-0.00832593,4.0353228,208.82046,-2928.4267)"
         style="fill:#0066ff;fill-opacity:1"
         inkscape:export-filename="D:\UPRI-Assets\NOAH Assets\HazardLevel\Landslide\landslide-noise.png"
         inkscape:export-xdpi="96"
         inkscape:export-ydpi="96">
        <path
           d="m -319.46314,1108.7864 h 55 a 1,1 0 0 0 0.77,-1.64 c -0.22,-0.26 -5.33,-6.32 -11.66,-7 -0.8,-0.09 -1.37,-0.66 -2.49,-1.81 a 24.66,24.66 0 0 0 -4,-3.54 c -2.91,-2 -3.86,-2.2 -5.75,-2.46 -0.69,-0.09 -1.47,-0.2 -2.6,-0.45 -1.89,-0.44 -1.89,-0.77 -1.89,-2.9 a 21.4,21.4 0 0 0 -0.38,-4.39 7.19,7.19 0 0 0 -3.31,-5.11 6.29,6.29 0 0 0 -5,-0.65 1.36,1.36 0 0 1 -1.11,0 c -0.75,-0.39 -1.22,-1.94 -1.67,-3.44 -0.66,-2.2 -1.41,-4.69 -3.55,-5.55 -2,-0.78 -2.14,-2 -2.38,-3.56 -0.26,-1.71 -0.59,-3.85 -3.79,-4.49 -2.15,-0.43 -6,0.73 -6.49,0.86 a 1,1 0 0 0 -0.71,1 v 44.13 a 1,1 0 0 0 1.01,1 z"
           id="path1775-8-2"
           style="fill:#0066ff;fill-opacity:1" />
        <path
           d="m -304.62314,1066.6364 a 4.93,4.93 0 0 0 1.16,0.15 4.75,4.75 0 0 0 3.5,-1.56 4.62,4.62 0 0 0 1.13,-4.51 c -0.62,-1.85 -3.42,-3.41 -5.76,-3.2 -2.13,0.2 -3.55,1.71 -3.9,4.15 a 0.66,0.66 0 0 0 0.03,0.12 5,5 0 0 0 3.84,4.85 z"
           id="path1777-2-7"
           style="fill:#0066ff;fill-opacity:1" />
        <path
           d="m -292.00314,1073.4864 a 3.81,3.81 0 0 0 0.87,0.1 3,3 0 0 0 2.15,-0.86 5.74,5.74 0 0 0 1.25,-2.62 c 0.44,-1.59 0.69,-2 1.57,-2 a 2.53,2.53 0 0 0 2.51,-2.41 c 0.39,-2.35 -0.9,-5.93 -2.9,-6.59 a 8.72,8.72 0 0 0 -6.46,0.81 5.14,5.14 0 0 0 -2.6,3.47 13.61,13.61 0 0 0 0,6.86 5.13,5.13 0 0 0 3.61,3.24 z"
           id="path1779-8-7"
           style="fill:#0066ff;fill-opacity:1" />
        <path
           d="m -293.46314,1058.7864 a 1,1 0 0 0 1,-1 v -3 a 1,1 0 0 0 -2,0 v 3 a 1,1 0 0 0 1,1 z"
           id="path1781-2-9"
           style="fill:#0066ff;fill-opacity:1" />
        <path
           d="m -283.46314,1059.7864 a 1,1 0 0 0 0.71,-0.29 l 2,-2 a 1.0040916,1.0040916 0 1 0 -1.42,-1.42 l -2,2 a 1,1 0 0 0 0,1.42 1,1 0 0 0 0.71,0.29 z"
           id="path1783-5-8"
           style="fill:#0066ff;fill-opacity:1" />
        <path
           d="m -310.17314,1058.4964 a 1,1 0 0 0 1.42,0 1,1 0 0 0 0,-1.42 l -2,-2 a 1.0040916,1.0040916 0 0 0 -1.42,1.42 z"
           id="path1785-0-0"
           style="fill:#0066ff;fill-opacity:1" />
      </g>
      <polygon
         points="275.283,163.305 275.286,163.305 275.285,163.303 "
         id="polygon2-0-9-9"
         transform="matrix(1.493047,0,0,1.493047,897.16746,1275.5455)"
         style="fill:#0066ff;fill-opacity:1"
         inkscape:export-filename="D:\UPRI-Assets\NOAH Assets\HazardLevel\Landslide\landslide-noise.png"
         inkscape:export-xdpi="96"
         inkscape:export-ydpi="96" />
      <polygon
         points="259.786,156.232 241,137.447 241,119.769 231,119.769 231,127.447 213.749,110.197 167.714,156.232 174.786,163.305 179.248,158.842 179.248,181.103 185.248,181.103 185.248,152.842 213.749,124.339 242.249,152.839 242.249,181.103 248.25,181.103 248.25,158.84 252.715,163.305 "
         id="polygon16-5-6-1"
         transform="matrix(1.493047,0,0,1.493047,897.16746,1275.5455)"
         style="fill:#0066ff;fill-opacity:1"
         inkscape:export-filename="D:\UPRI-Assets\NOAH Assets\HazardLevel\Landslide\landslide-noise.png"
         inkscape:export-xdpi="96"
         inkscape:export-ydpi="96" />
      <rect
         x="1187.689"
         y="1510.8528"
         width="27.62137"
         height="35.086605"
         id="rect18-5-9-5"
         style="fill:#0066ff;fill-opacity:1;stroke-width:1.49305"
         inkscape:export-filename="D:\UPRI-Assets\NOAH Assets\HazardLevel\Landslide\landslide-noise.png"
         inkscape:export-xdpi="96"
         inkscape:export-ydpi="96" />
      <rect
         x="1228.0042"
         y="1510.8528"
         width="16.919209"
         height="16.922194"
         id="rect20-2-7-9"
         style="fill:#0066ff;fill-opacity:1;stroke-width:1.49305"
         inkscape:export-filename="D:\UPRI-Assets\NOAH Assets\HazardLevel\Landslide\landslide-noise.png"
         inkscape:export-xdpi="96"
         inkscape:export-ydpi="96" />
    </g>
    <ellipse
       transform="rotate(-13.109286)"
       cx="109.41082"
       cy="72.375671"
       rx="7.5291638"
       ry="7.5288281"
       id="ellipse22-9"
       style="fill:#0066ff;fill-opacity:1;stroke-width:0.334703"
       inkscape:export-filename="D:\UPRI-Assets\NOAH Assets\HazardLevel\Landslide\landslide-noise.png"
       inkscape:export-xdpi="96"
       inkscape:export-ydpi="96" />
    <path
       d="m 130.36914,52.687078 c -2.85681,0.71195 -4.11334,4.6991 -3.15304,8.03054 0.079,0.40401 0.16468,0.82809 0.25238,1.26021 0.12853,-0.14694 0.25472,-0.30124 0.37488,-0.46659 0.84951,-1.14608 1.30574,-2.49064 1.30942,-2.50235 0.44417,-1.42255 1.72747,-2.36612 3.19956,-2.36612 0.33271,0 0.66408,0.0495 0.98474,0.14828 0.85487,0.26276 1.55576,0.84248 1.97383,1.63309 0.41873,0.78993 0.50375,1.69568 0.24133,2.55021 -0.13088,0.41036 -0.49538,1.45569 -1.19528,2.73799 -1.1454,2.0652 -2.49799,3.60323 -4.13811,4.70478 -0.39195,0.26276 -0.87562,0.54292 -1.44162,0.79496 0.27948,2.04211 0.4522,4.13811 0.39898,6.17319 l -10.61757,1.90889 c -1.33586,0.24033 -2.47925,1.1203 -3.05229,2.35005 l -7.50471,16.10024 c -0.97638,2.09466 -0.0699,4.583942 2.02472,5.560312 2.09466,0.97603 4.58362,0.0696 5.55999,-2.025034 l 6.58824,-14.134438 7.39156,-1.32883 c 0.0977,3.24074 0.81705,7.51307 3.1758,11.99895 2.54988,4.874472 7.04179,9.897912 14.2777,14.001872 0.65304,0.37121 1.36398,0.54794 2.06554,0.54794 1.45536,0 2.8692,-0.75979 3.64039,-2.11507 1.14172,-2.00898 0.44082,-4.56322 -1.56748,-5.70592 -6.01253,-3.433544 -9.19569,-7.193752 -11.00919,-10.621582 -1.80279,-3.42985 -2.22587,-6.63008 -2.22821,-8.92156 0,-0.39296 0.013,-0.75746 0.0338,-1.08917 1.37167,-0.82474 2.49565,-2.29749 3.0014,-4.90059 0.86559,-7.43541 0.37589,-11.83092 -1.90186,-18.58351 -2.6e-4,-8e-4 -2.6e-4,-0.001 -7.9e-4,-0.002 0.79729,0.16301 1.62538,0.36853 2.46418,0.62726 3.40843,1.05001 6.91359,2.9241 9.46347,6.24884 0.52685,0.68717 1.32213,1.048 2.12612,1.048 0.56902,0 1.14206,-0.18075 1.62807,-0.55362 1.17352,-0.90073 1.39477,-2.58134 0.49438,-3.75486 -3.42483,-4.45977 -8.02485,-6.84464 -12.13786,-8.10752 -4.12907,-1.26657 -7.83975,-1.45636 -9.8437,-1.4587 -0.93286,0 -1.49652,0.0435 -1.55777,0.0485 -0.003,2.6e-4 -0.005,5.3e-4 -0.007,10e-4 -0.45722,0.005 -0.89905,0.0589 -1.31377,0.16234 z"
       id="path24-8"
       style="fill:#0066ff;fill-opacity:1;stroke-width:0.334716"
       inkscape:export-filename="D:\UPRI-Assets\NOAH Assets\HazardLevel\Landslide\landslide-noise.png"
       inkscape:export-xdpi="96"
       inkscape:export-ydpi="96" />
    <path
       d="m 133.76953,63.391008 c 0.76718,-1.40582 1.1049,-2.49666 1.14239,-2.61347 0.43513,-1.41385 -0.35814,-2.91205 -1.77132,-3.34651 -1.41016,-0.43346 -2.90401,0.3538 -3.34316,1.76061 l -7.9e-4,-2.6e-4 c 0,2.6e-4 0,2.6e-4 0,8e-4 -2.6e-4,0.001 -0.001,0.004 -0.003,0.0101 l 2.6e-4,7.9e-4 v -2.6e-4 h 2.6e-4 c 0,0 0,2.6e-4 0,2.6e-4 h -2.6e-4 c -0.0425,0.14126 -0.53421,1.5223 -1.4095,2.70319 -0.45087,0.61822 -0.99244,1.1705 -1.55543,1.52932 -0.57203,0.35881 -1.12733,0.55596 -1.87342,0.56165 -1.19293,0.009 -3.23671,-0.61186 -6.19528,-3.30767 -1.09352,-0.99612 -2.78652,-0.91813 -3.78297,0.17439 -0.99612,1.09352 -0.91813,2.78652 0.17472,3.78331 3.51319,3.20491 6.75225,4.69608 9.80353,4.70612 0.008,0 0.0174,0 0.0258,0 1.89049,0 3.57211,-0.62491 4.86445,-1.49184 1.9591,-1.31644 3.14969,-3.07337 3.92389,-4.47014 z"
       id="path26-2"
       style="fill:#0066ff;fill-opacity:1;stroke-width:0.334716"
       inkscape:export-filename="D:\UPRI-Assets\NOAH Assets\HazardLevel\Landslide\landslide-noise.png"
       inkscape:export-xdpi="96"
       inkscape:export-ydpi="96" />
    <rect
       x="150.02455"
       y="49.887501"
       width="36.818237"
       height="1.7853824"
       id="rect28-8"
       style="fill:#0066ff;fill-opacity:1;stroke-width:0.334716"
       inkscape:export-filename="D:\UPRI-Assets\NOAH Assets\HazardLevel\Landslide\landslide-noise.png"
       inkscape:export-xdpi="96"
       inkscape:export-ydpi="96" />
    <rect
       x="165.19795"
       y="54.573536"
       width="17.182379"
       height="1.7853824"
       id="rect30-2"
       style="fill:#0066ff;fill-opacity:1;stroke-width:0.334716"
       inkscape:export-filename="D:\UPRI-Assets\NOAH Assets\HazardLevel\Landslide\landslide-noise.png"
       inkscape:export-xdpi="96"
       inkscape:export-ydpi="96" />
    <rect
       x="155.38005"
       y="45.20145"
       width="17.182379"
       height="1.7853824"
       id="rect32-3"
       style="fill:#0066ff;fill-opacity:1;stroke-width:0.334716"
       inkscape:export-filename="D:\UPRI-Assets\NOAH Assets\HazardLevel\Landslide\landslide-noise.png"
       inkscape:export-xdpi="96"
       inkscape:export-ydpi="96" />
    <path
       i:knockout="Off"
       d="m 132.37105,40.820968 0.5117,-0.55694 0.53264,0.54238 1.10408,1.12407 1.0953,-1.12261 0.5134,-0.52608 0.51677,0.52287 1.12433,1.13747 1.15842,-1.14271 0.50024,-0.49376 0.50934,0.48707 1.21986,1.16716 1.19859,-1.16396 1.00923,0.77326 -1.69916,1.65044 -0.50056,0.48649 -0.5053,-0.48329 -1.21614,-1.16337 -1.1726,1.15668 -0.51441,0.50773 -0.50732,-0.51326 -1.11488,-1.12757 -1.097,1.12465 -0.51474,0.52783 -0.51677,-0.52637 -1.08821,-1.10835 -1.00485,1.0935 -1.05818,-0.72318 z m 3.26971,5.74293 0.22076,0.62244 0.53195,1.49789 1.62929,-0.62099 0.71524,-0.27279 0.20826,0.64981 0.45736,1.42802 1.54558,-0.61925 0.72503,-0.29055 0.21063,0.66525 0.44318,1.40123 1.44634,-0.62478 v 0 l -1.57865,1.98438 -0.73685,0.3185 -0.21703,-0.68562 -0.4496,-1.42161 -1.54288,0.61837 -0.723,0.28967 -0.21232,-0.66233 -0.46141,-1.44053 -1.61005,0.61313 -0.696,0.26493 -0.22244,-0.62681 -0.53364,-1.50226 -1.65629,0.61808 -0.53601,-1.06905 2.34892,-0.87661 z m 6.85301,-11.50828 -0.74832,-0.29753 -1.55165,-0.61663 -0.44285,1.41696 -0.20725,0.66349 -0.72469,-0.28531 -1.5763,-0.6207 -0.48976,1.45771 -0.21164,0.63002 -0.70005,-0.25562 -1.67756,-0.61284 -0.51541,1.49149 -1.29412,-0.33277 0.73111,-2.1151 0.21568,-0.62361 0.69499,0.25387 1.67215,0.6111 0.49584,-1.47548 0.21772,-0.64777 0.71119,0.28007 1.56279,0.61546 0.44319,-1.41928 0.20792,-0.66612 0.72604,0.2888 1.52938,0.60789 0.37433,-1.35727 1.31335,0.26959 -0.56537,2.04872 z"
       id="path1970-2"
       style="fill:#0066ff;fill-opacity:1;stroke-width:0.313478"
       sodipodi:nodetypes="ccccccccccccccccccccccccccccccccccccccccccccccccccccccccccccccccccccccccccccccccccccccc"
       inkscape:export-filename="D:\UPRI-Assets\NOAH Assets\HazardLevel\Landslide\landslide-noise.png"
       inkscape:export-xdpi="96"
       inkscape:export-ydpi="96" />
  </g>
</svg>
