<?xml version="1.0" encoding="UTF-8" standalone="no"?>
<svg
   data-name="Layer 1"
   viewBox="0 0 30 26"
   x="0px"
   y="0px"
   version="1.1"
   id="svg12"
   sodipodi:docname="fire-station.svg"
   inkscape:version="1.1 (c68e22c387, 2021-05-23)"
   width="30"
   height="26"
   xmlns:inkscape="http://www.inkscape.org/namespaces/inkscape"
   xmlns:sodipodi="http://sodipodi.sourceforge.net/DTD/sodipodi-0.dtd"
   xmlns="http://www.w3.org/2000/svg"
   xmlns:svg="http://www.w3.org/2000/svg"
   xmlns:rdf="http://www.w3.org/1999/02/22-rdf-syntax-ns#"
   xmlns:cc="http://creativecommons.org/ns#"
   xmlns:dc="http://purl.org/dc/elements/1.1/">
  <defs
     id="defs16" />
  <sodipodi:namedview
     id="namedview14"
     pagecolor="#ffffff"
     bordercolor="#666666"
     borderopacity="1.0"
     inkscape:pageshadow="2"
     inkscape:pageopacity="0.0"
     inkscape:pagecheckerboard="0"
     showgrid="false"
     inkscape:zoom="18.826011"
     inkscape:cx="10.172097"
     inkscape:cy="8.1004946"
     inkscape:window-width="1920"
     inkscape:window-height="1017"
     inkscape:window-x="-8"
     inkscape:window-y="-8"
     inkscape:window-maximized="1"
     inkscape:current-layer="svg12"
     height="24px" />
  <title
     id="title2">medical &amp;amp; health care icon set</title>
  <metadata
     id="metadata1007">
    <rdf:RDF>
      <cc:Work
         rdf:about="">
        <dc:title>medical &amp;amp; health care icon set</dc:title>
      </cc:Work>
    </rdf:RDF>
  </metadata>
  <path
     d="m 18.279104,24.416961 c 0,0 7.594422,-7.290645 -0.101259,-14.6825491 1.215107,6.5818331 -4.151618,8.8095301 -4.151618,8.8095301 -2.93651,-1.316367 -2.93651,-5.265466 -2.93651,-5.265466 0,0 -1.92392,3.037769 -1.215107,6.581832 0.607553,2.835251 4.151617,5.062948 4.151617,5.062948 0,0 -7.695681,0.303777 -9.518342,-7.391904 -1.215108,-5.265466 1.215107,-9.5183421 1.215107,-9.5183421 0,0 0,4.7591711 1.822662,5.9742781 0,0 0,-7.0881271 4.151617,-10.1258961 0,0 -1.822661,7.1893871 2.430215,6.5818331 3.746582,-0.5062951 0.607554,-9.5183431 0.607554,-9.5183431 0,0 3.746582,1.417625 7.189387,8.303235 2.430215,0.303777 2.936509,-4.151618 2.936509,-4.151618 0,0 6.986869,16.4039531 -6.581832,19.3404621 z"
     id="path1650"
     style="fill:#7a0177;fill-opacity:1;stroke-width:1.01259" />
</svg>
