<?xml version="1.0" encoding="UTF-8" standalone="no"?>
<svg
   data-name="Layer 1"
   viewBox="0 0 30 26"
   x="0px"
   y="0px"
   version="1.1"
   id="svg12"
   sodipodi:docname="police-station.svg"
   inkscape:version="1.1 (c68e22c387, 2021-05-23)"
   width="30"
   height="26"
   xmlns:inkscape="http://www.inkscape.org/namespaces/inkscape"
   xmlns:sodipodi="http://sodipodi.sourceforge.net/DTD/sodipodi-0.dtd"
   xmlns="http://www.w3.org/2000/svg"
   xmlns:svg="http://www.w3.org/2000/svg"
   xmlns:rdf="http://www.w3.org/1999/02/22-rdf-syntax-ns#"
   xmlns:cc="http://creativecommons.org/ns#"
   xmlns:dc="http://purl.org/dc/elements/1.1/">
  <defs
     id="defs16" />
  <sodipodi:namedview
     id="namedview14"
     pagecolor="#ffffff"
     bordercolor="#666666"
     borderopacity="1.0"
     inkscape:pageshadow="2"
     inkscape:pageopacity="0.0"
     inkscape:pagecheckerboard="0"
     showgrid="false"
     inkscape:zoom="18.826011"
     inkscape:cx="8.5785566"
     inkscape:cy="17.23679"
     inkscape:window-width="1920"
     inkscape:window-height="1017"
     inkscape:window-x="-8"
     inkscape:window-y="-8"
     inkscape:window-maximized="1"
     inkscape:current-layer="svg12"
     height="24px" />
  <title
     id="title2">medical &amp;amp; health care icon set</title>
  <metadata
     id="metadata1007">
    <rdf:RDF>
      <cc:Work
         rdf:about="">
        <dc:title>medical &amp;amp; health care icon set</dc:title>
      </cc:Work>
    </rdf:RDF>
  </metadata>
  <path
     style="color:#000000;text-indent:0;text-transform:none;direction:ltr;baseline-shift:baseline;fill:#8c5109;fill-opacity:1;stroke-width:0.29047;enable-background:accumulate"
     d="M 14.910395,0.92281222 C 11.094505,3.7520962 8.4971318,3.8079532 4.0451148,4.1270622 c -0.803437,5.665451 -0.505706,10.1240668 1.179885,13.5068098 1.699243,3.410512 4.8023222,5.783905 9.6761002,7.28894 4.878716,-1.504891 7.984991,-3.876395 9.685396,-7.28894 1.6853,-3.382743 1.992326,-7.8414168 1.18918,-13.5068098 -4.456375,-0.319574 -7.049391,-0.376884 -10.865281,-3.20424998 z m 0,4.69290298 a 0.31954777,0.31954777 0 0 1 0.281174,0.181543 l 1.951661,3.939485 4.393342,0.6353998 a 0.31954777,0.31954777 0 0 1 0.172539,0.54463 l -3.167854,3.059021 0.753476,4.329788 a 0.31954777,0.31954777 0 0 1 -0.463007,0.33584 l -3.921331,-2.042345 -3.92133,2.042345 a 0.31954777,0.31954777 0 0 1 -0.463008,-0.33584 l 0.744182,-4.33888 -3.1678542,-3.049929 a 0.31954777,0.31954777 0 0 1 0.172538,-0.54463 l 4.3933432,-0.6353998 1.95166,-3.939485 a 0.31954777,0.31954777 0 0 1 0.226857,-0.172451 0.31954777,0.31954777 0 0 1 0.06361,-0.009 z"
     fill="#000000"
     fill-opacity="1"
     fill-rule="nonzero"
     stroke="none"
     marker="none"
     visibility="visible"
     display="inline"
     overflow="visible"
     id="path1369" />
</svg>
