<svg viewBox="0 0 24 24" fill="none"
  xmlns="http://www.w3.org/2000/svg">
  <path d="M12 4.5V2.625" stroke="#0166FF" stroke-width="1.5" stroke-linecap="round" stroke-linejoin="round" />
  <path d="M12 21.375V19.5" stroke="#0166FF" stroke-width="1.5" stroke-linecap="round" stroke-linejoin="round" />
  <path d="M12 5.25C10.665 5.25 9.35994 5.64588 8.2499 6.38758C7.13987 7.12928 6.27471 8.18349 5.76382 9.41689C5.25292 10.6503 5.11925 12.0075 5.3797 13.3169C5.64015 14.6262 6.28303 15.829 7.22703 16.773C8.17104 17.717 9.37377 18.3599 10.6831 18.6203C11.9925 18.8808 13.3497 18.7471 14.5831 18.2362C15.8165 17.7253 16.8707 16.8601 17.6124 15.7501C18.3541 14.6401 18.75 13.335 18.75 12C18.75 10.2098 18.0388 8.4929 16.773 7.22703C15.5071 5.96116 13.7902 5.25 12 5.25Z" stroke="#0166FF" stroke-width="1.5" stroke-linecap="round" stroke-linejoin="round" />
  <path d="M12 9C12.5933 9 13.1734 9.17595 13.6667 9.50559C14.1601 9.83524 14.5446 10.3038 14.7716 10.8519C14.9987 11.4001 15.0581 12.0033 14.9424 12.5853C14.8266 13.1672 14.5409 13.7018 14.1213 14.1213C13.7018 14.5409 13.1672 14.8266 12.5853 14.9424C12.0033 15.0581 11.4001 14.9987 10.8519 14.7716C10.3038 14.5446 9.83524 14.1601 9.50559 13.6667C9.17595 13.1734 9 12.5933 9 12C9 11.2043 9.31607 10.4413 9.87868 9.87868C10.4413 9.31607 11.2044 9 12 9Z" fill="#0166FF" stroke="#0166FF" stroke-linecap="round" stroke-linejoin="round" />
  <path d="M19.5 12H21.375" stroke="#0166FF" stroke-width="1.5" stroke-linecap="round" stroke-linejoin="round" />
  <path d="M2.625 12H4.5" stroke="#0166FF" stroke-width="1.5" stroke-linecap="round" stroke-linejoin="round" />
</svg>
